<svg width="50" height="50" viewBox="0 0 50 50" fill="none" xmlns="http://www.w3.org/2000/svg">
<circle cx="25" cy="25" r="23" stroke="#48B2E7" stroke-width="4"/>
<mask id="path-2-outside-1_1319_3561" maskUnits="userSpaceOnUse" x="15" y="10" width="25" height="30" fill="black">
<rect fill="white" x="15" y="10" width="25" height="30"/>
<path d="M16.6059 11.72H19.9659V24.32L31.4059 11.72H35.6059L25.1259 23.16L37.2059 39H33.0059L22.8059 25.64L19.9659 28.76V39H16.6059V11.72Z"/>
</mask>
<path d="M16.6059 11.72H19.9659V24.32L31.4059 11.72H35.6059L25.1259 23.16L37.2059 39H33.0059L22.8059 25.64L19.9659 28.76V39H16.6059V11.72Z" fill="#48B2E7"/>
<path d="M16.6059 11.72V10.72H15.6059V11.72H16.6059ZM19.9659 11.72H20.9659V10.72H19.9659V11.72ZM19.9659 24.32H18.9659V26.909L20.7063 24.9922L19.9659 24.32ZM31.4059 11.72V10.72H30.9632L30.6656 11.0478L31.4059 11.72ZM35.6059 11.72L36.3433 12.3955L37.8782 10.72H35.6059V11.72ZM25.1259 23.16L24.3886 22.4845L23.8235 23.1013L24.3308 23.7664L25.1259 23.16ZM37.2059 39V40H39.2262L38.0011 38.3936L37.2059 39ZM33.0059 39L32.2111 39.6068L32.5113 40H33.0059V39ZM22.8059 25.64L23.6008 25.0332L22.8733 24.0804L22.0664 24.9669L22.8059 25.64ZM19.9659 28.76L19.2264 28.0869L18.9659 28.373V28.76H19.9659ZM19.9659 39V40H20.9659V39H19.9659ZM16.6059 39H15.6059V40H16.6059V39ZM16.6059 11.72V12.72H19.9659V11.72V10.72H16.6059V11.72ZM19.9659 11.72H18.9659V24.32H19.9659H20.9659V11.72H19.9659ZM19.9659 24.32L20.7063 24.9922L32.1463 12.3922L31.4059 11.72L30.6656 11.0478L19.2256 23.6478L19.9659 24.32ZM31.4059 11.72V12.72H35.6059V11.72V10.72H31.4059V11.72ZM35.6059 11.72L34.8686 11.0445L24.3886 22.4845L25.1259 23.16L25.8633 23.8355L36.3433 12.3955L35.6059 11.72ZM25.1259 23.16L24.3308 23.7664L36.4108 39.6064L37.2059 39L38.0011 38.3936L25.9211 22.5536L25.1259 23.16ZM37.2059 39V38H33.0059V39V40H37.2059V39ZM33.0059 39L33.8008 38.3932L23.6008 25.0332L22.8059 25.64L22.0111 26.2468L32.2111 39.6068L33.0059 39ZM22.8059 25.64L22.0664 24.9669L19.2264 28.0869L19.9659 28.76L20.7054 29.4331L23.5454 26.3131L22.8059 25.64ZM19.9659 28.76H18.9659V39H19.9659H20.9659V28.76H19.9659ZM19.9659 39V38H16.6059V39V40H19.9659V39ZM16.6059 39H17.6059V11.72H16.6059H15.6059V39H16.6059Z" fill="#48B2E7" mask="url(#path-2-outside-1_1319_3561)"/>
</svg>
