<svg width="33" height="33" viewBox="0 0 33 33" fill="none" xmlns="http://www.w3.org/2000/svg">
<circle cx="16.5" cy="16.5" r="16" fill="#48B2E7" stroke="#F7F7F9"/>
<path fill-rule="evenodd" clip-rule="evenodd" d="M18.9058 13.6387L13.878 18.3586C13.6469 18.5753 13.2707 18.5753 13.0396 18.3586C12.8085 18.1419 12.8085 17.7891 13.0396 17.5724L18.0673 12.8525C18.2984 12.6358 18.6747 12.6358 18.9058 12.8525C19.0214 12.9609 19.0806 13.1025 19.0806 13.2442C19.0806 13.3887 19.0214 13.5304 18.9058 13.6387ZM20.7925 13.049L19.5333 11.8711C18.9556 11.3294 18.0164 11.3294 17.4386 11.8711L12.0405 16.9411C11.8716 17.0966 11.7472 17.2911 11.6731 17.505L10.5888 20.7442C10.4436 21.172 10.8732 21.5749 11.3295 21.4415L14.79 20.422C15.0151 20.3553 15.2225 20.2386 15.3914 20.0803L20.7925 15.0103C21.3702 14.4686 21.3702 13.5907 20.7925 13.049V13.049Z" fill="white"/>
</svg>
