<svg width="50" height="50" viewBox="0 0 50 50" fill="none" xmlns="http://www.w3.org/2000/svg">
<path d="M34.0114 21.1023L27.7614 29.1477L23.2955 23.7841L17.0455 31.8182H42.0455L34.0114 21.1023ZM4.54545 9.09091H0V45.4545C0 47.9659 2.03409 50 4.54545 50H40.9091V45.4545H4.54545V9.09091ZM45.4545 0H13.6364C11.125 0 9.09091 2.03409 9.09091 4.54545V36.3636C9.09091 38.875 11.125 40.9091 13.6364 40.9091H45.4545C47.9659 40.9091 50 38.875 50 36.3636V4.54545C50 2.03409 47.9659 0 45.4545 0ZM45.4545 36.3636H13.6364V4.54545H45.4545V36.3636Z" fill="#48B2E7"/>
</svg>
