<svg width="42" height="38" viewBox="0 0 42 38" fill="none" xmlns="http://www.w3.org/2000/svg">
<path d="M20.8332 27.5013C24.5151 27.5013 27.4998 24.5165 27.4998 20.8346C27.4998 17.1527 24.5151 14.168 20.8332 14.168C17.1513 14.168 14.1665 17.1527 14.1665 20.8346C14.1665 24.5165 17.1513 27.5013 20.8332 27.5013Z" fill="#48B2E7"/>
<path d="M14.5833 0L10.7708 4.16667H4.16667C1.86458 4.16667 0 6.03125 0 8.33333V33.3333C0 35.6354 1.86458 37.5 4.16667 37.5H37.5C39.8021 37.5 41.6667 35.6354 41.6667 33.3333V8.33333C41.6667 6.03125 39.8021 4.16667 37.5 4.16667H30.8958L27.0833 0H14.5833ZM20.8333 31.25C15.0833 31.25 10.4167 26.5833 10.4167 20.8333C10.4167 15.0833 15.0833 10.4167 20.8333 10.4167C26.5833 10.4167 31.25 15.0833 31.25 20.8333C31.25 26.5833 26.5833 31.25 20.8333 31.25Z" fill="#48B2E7"/>
</svg>
