<svg width="108" height="40" viewBox="0 0 108 40" fill="none" xmlns="http://www.w3.org/2000/svg">
<g clip-path="url(#clip0_1319_1401)">
<g filter="url(#filter0_d_1319_1401)">
<rect width="108" height="40" rx="8" fill="#48B2E7"/>
</g>
<path d="M44.2535 14.576C45.2028 14.576 45.9975 14.6667 46.6375 14.848C47.2882 15.0293 47.7735 15.328 48.0935 15.744C48.4242 16.16 48.5895 16.7147 48.5895 17.408C48.5895 17.856 48.5042 18.256 48.3335 18.608C48.1735 18.9493 47.9282 19.2373 47.5975 19.472C47.2775 19.696 46.8828 19.8507 46.4135 19.936V20.016C46.8935 20.0907 47.3255 20.2293 47.7095 20.432C48.1042 20.6347 48.4135 20.9227 48.6375 21.296C48.8615 21.6693 48.9735 22.1547 48.9735 22.752C48.9735 23.4453 48.8135 24.0373 48.4935 24.528C48.1735 25.008 47.7148 25.376 47.1175 25.632C46.5308 25.8773 45.8268 26 45.0055 26H40.9895V14.576H44.2535ZM44.5415 19.44C45.5228 19.44 46.1948 19.2853 46.5575 18.976C46.9202 18.656 47.1015 18.1867 47.1015 17.568C47.1015 16.9387 46.8775 16.4907 46.4295 16.224C45.9922 15.9467 45.2882 15.808 44.3175 15.808H42.4295V19.44H44.5415ZM42.4295 20.64V24.784H44.7335C45.7468 24.784 46.4508 24.5867 46.8455 24.192C47.2402 23.7973 47.4375 23.28 47.4375 22.64C47.4375 22.2347 47.3468 21.8827 47.1655 21.584C46.9948 21.2853 46.7015 21.056 46.2855 20.896C45.8802 20.7253 45.3255 20.64 44.6215 20.64H42.4295ZM55.6438 26.16C54.8864 26.16 54.2091 26.0053 53.6118 25.696C53.0251 25.3867 52.5611 24.9067 52.2198 24.256C51.8891 23.6053 51.7238 22.7733 51.7238 21.76C51.7238 20.704 51.8998 19.8453 52.2518 19.184C52.6038 18.5227 53.0784 18.0373 53.6758 17.728C54.2838 17.4187 54.9718 17.264 55.7398 17.264C56.1771 17.264 56.5984 17.312 57.0038 17.408C57.4091 17.4933 57.7398 17.6 57.9958 17.728L57.5638 18.896C57.3078 18.8 57.0091 18.7093 56.6678 18.624C56.3264 18.5387 56.0064 18.496 55.7078 18.496C55.1318 18.496 54.6571 18.6187 54.2838 18.864C53.9104 19.1093 53.6331 19.472 53.4518 19.952C53.2704 20.432 53.1798 21.0293 53.1798 21.744C53.1798 22.4267 53.2704 23.008 53.4518 23.488C53.6331 23.968 53.9051 24.3307 54.2678 24.576C54.6304 24.8213 55.0838 24.944 55.6278 24.944C56.0971 24.944 56.5078 24.896 56.8598 24.8C57.2224 24.704 57.5531 24.5867 57.8518 24.448V25.696C57.5638 25.8453 57.2438 25.9573 56.8918 26.032C56.5504 26.1173 56.1344 26.16 55.6438 26.16ZM64.2033 17.264C64.9393 17.264 65.5686 17.424 66.0913 17.744C66.6246 18.064 67.0299 18.5173 67.3073 19.104C67.5953 19.68 67.7393 20.3573 67.7393 21.136V21.984H61.8673C61.8886 22.9547 62.1339 23.696 62.6033 24.208C63.0833 24.7093 63.7499 24.96 64.6033 24.96C65.1473 24.96 65.6273 24.912 66.0433 24.816C66.4699 24.7093 66.9073 24.56 67.3553 24.368V25.6C66.9179 25.792 66.4859 25.9307 66.0593 26.016C65.6326 26.112 65.1259 26.16 64.5393 26.16C63.7286 26.16 63.0086 25.9947 62.3793 25.664C61.7606 25.3333 61.2753 24.8427 60.9233 24.192C60.5819 23.5307 60.4113 22.7253 60.4113 21.776C60.4113 20.8373 60.5659 20.032 60.8753 19.36C61.1953 18.688 61.6379 18.1707 62.2033 17.808C62.7793 17.4453 63.4459 17.264 64.2033 17.264ZM64.1873 18.416C63.5153 18.416 62.9819 18.6347 62.5873 19.072C62.2033 19.4987 61.9739 20.096 61.8993 20.864H66.2673C66.2673 20.3733 66.1926 19.9467 66.0433 19.584C65.8939 19.2213 65.6646 18.9387 65.3553 18.736C65.0566 18.5227 64.6673 18.416 64.1873 18.416Z" fill="white"/>
</g>
<defs>
<filter id="filter0_d_1319_1401" x="-48" y="-46" width="204" height="136" filterUnits="userSpaceOnUse" color-interpolation-filters="sRGB">
<feFlood flood-opacity="0" result="BackgroundImageFix"/>
<feColorMatrix in="SourceAlpha" type="matrix" values="0 0 0 0 0 0 0 0 0 0 0 0 0 0 0 0 0 0 127 0" result="hardAlpha"/>
<feOffset dy="2"/>
<feGaussianBlur stdDeviation="24"/>
<feColorMatrix type="matrix" values="0 0 0 0 0 0 0 0 0 0 0 0 0 0 0 0 0 0 0.04 0"/>
<feBlend mode="normal" in2="BackgroundImageFix" result="effect1_dropShadow_1319_1401"/>
<feBlend mode="normal" in="SourceGraphic" in2="effect1_dropShadow_1319_1401" result="shape"/>
</filter>
<clipPath id="clip0_1319_1401">
<rect width="108" height="40" fill="white"/>
</clipPath>
</defs>
</svg>
