<svg width="108" height="40" viewBox="0 0 108 40" fill="none" xmlns="http://www.w3.org/2000/svg">
<g clip-path="url(#clip0_1319_1407)">
<g filter="url(#filter0_d_1319_1407)">
<rect width="108" height="40" rx="8" fill="#48B2E7"/>
</g>
<path d="M34.0163 16.336H30.5923V15.088H38.7843V16.336H35.3603V26H34.0163V16.336ZM45.9399 25.808C45.6946 25.8827 45.4386 25.9467 45.1719 26C44.9159 26.0533 44.6279 26.1013 44.3079 26.144C43.9986 26.1867 43.6733 26.208 43.3319 26.208C42.7986 26.208 42.3026 26.1333 41.8439 25.984C41.3853 25.8347 40.9853 25.5947 40.6439 25.264C40.3026 24.9333 40.0306 24.5067 39.8279 23.984C39.6359 23.4507 39.5399 22.8 39.5399 22.032C39.5399 21.3387 39.6359 20.7307 39.8279 20.208C40.0199 19.6747 40.2813 19.232 40.6119 18.88C40.9533 18.5173 41.3479 18.2453 41.7959 18.064C42.2546 17.8827 42.7506 17.792 43.2839 17.792C43.8066 17.792 44.2599 17.8933 44.6439 18.096C45.0279 18.2987 45.3426 18.576 45.5879 18.928C45.8439 19.2693 46.0306 19.6747 46.1479 20.144C46.2759 20.6027 46.3399 21.088 46.3399 21.6L46.0999 22.304H40.9319C40.9319 22.6347 40.9746 22.9653 41.0599 23.296C41.1453 23.6267 41.2893 23.9253 41.4919 24.192C41.7053 24.4587 41.9773 24.6773 42.3079 24.848C42.6493 25.008 43.0706 25.088 43.5719 25.088C43.8919 25.088 44.1853 25.072 44.4519 25.04C44.7186 24.9973 44.9479 24.9547 45.1399 24.912C45.3426 24.8587 45.5293 24.8 45.6999 24.736L45.9399 25.808ZM45.0119 21.28C45.0119 21.2053 44.9959 21.04 44.9639 20.784C44.9319 20.528 44.8573 20.2613 44.7399 19.984C44.6226 19.7067 44.4413 19.4613 44.1959 19.248C43.9506 19.024 43.6253 18.912 43.2199 18.912C42.7719 18.912 42.4039 19.008 42.1159 19.2C41.8279 19.3813 41.5986 19.6 41.4279 19.856C41.2573 20.112 41.1399 20.3733 41.0759 20.64C41.0119 20.9067 40.9799 21.12 40.9799 21.28H45.0119ZM49.0977 19.552C49.1084 19.328 49.0817 18.8427 49.0177 18.096L50.2017 17.936L50.3777 18.96C50.6977 18.7467 51.0124 18.56 51.3217 18.4C51.6417 18.24 51.967 18.1013 52.2977 17.984C52.6284 17.856 52.9484 17.792 53.2577 17.792C53.695 17.792 54.0577 17.8453 54.3457 17.952C54.6444 18.048 54.8844 18.2133 55.0657 18.448C55.247 18.6827 55.375 18.992 55.4497 19.376C55.535 19.76 55.5777 20.24 55.5777 20.816V26H54.2977V20.96C54.2977 20.64 54.2924 20.3573 54.2817 20.112C54.271 19.856 54.223 19.6427 54.1377 19.472C54.063 19.2907 53.9404 19.152 53.7697 19.056C53.6097 18.96 53.3804 18.912 53.0817 18.912C52.8044 18.912 52.511 18.976 52.2017 19.104C51.8924 19.2213 51.5884 19.36 51.2897 19.52C50.991 19.68 50.687 19.8667 50.3777 20.08V26H49.0977V19.552ZM58.8477 19.552C58.8584 19.328 58.8317 18.8427 58.7677 18.096L59.9517 17.936L60.1277 18.96C60.4477 18.7467 60.7624 18.56 61.0717 18.4C61.3917 18.24 61.717 18.1013 62.0477 17.984C62.3784 17.856 62.6984 17.792 63.0077 17.792C63.445 17.792 63.8077 17.8453 64.0957 17.952C64.3944 18.048 64.6344 18.2133 64.8157 18.448C64.997 18.6827 65.125 18.992 65.1997 19.376C65.285 19.76 65.3277 20.24 65.3277 20.816V26H64.0477V20.96C64.0477 20.64 64.0424 20.3573 64.0317 20.112C64.021 19.856 63.973 19.6427 63.8877 19.472C63.813 19.2907 63.6904 19.152 63.5197 19.056C63.3597 18.96 63.1304 18.912 62.8317 18.912C62.5544 18.912 62.261 18.976 61.9517 19.104C61.6424 19.2213 61.3384 19.36 61.0397 19.52C60.741 19.68 60.437 19.8667 60.1277 20.08V26H58.8477V19.552ZM68.5817 17.936L69.8617 17.792V26H68.5817V17.936ZM68.3737 15.648C68.3737 15.4027 68.4537 15.2 68.6137 15.04C68.7844 14.8693 68.9924 14.784 69.2377 14.784C69.4937 14.784 69.707 14.8693 69.8777 15.04C70.059 15.2 70.1497 15.4027 70.1497 15.648C70.1497 15.8933 70.059 16.1013 69.8777 16.272C69.707 16.432 69.4937 16.512 69.2377 16.512C68.9924 16.512 68.7844 16.432 68.6137 16.272C68.4537 16.1013 68.3737 15.8933 68.3737 15.648ZM77.5118 19.264C77.0638 19.1253 76.6638 19.0347 76.3118 18.992C75.9705 18.9387 75.6558 18.912 75.3678 18.912C74.9945 18.912 74.6798 19.0027 74.4238 19.184C74.1785 19.3653 74.0558 19.6 74.0558 19.888C74.0665 20.144 74.1785 20.3627 74.3918 20.544C74.6051 20.7253 74.8505 20.8907 75.1278 21.04C75.4158 21.1787 75.7305 21.3333 76.0718 21.504C76.4238 21.6747 76.7491 21.8667 77.0478 22.08C77.3571 22.2933 77.6078 22.5493 77.7998 22.848C77.9918 23.1467 78.0931 23.504 78.1038 23.92C78.0931 24.368 77.9918 24.7413 77.7998 25.04C77.6185 25.328 77.3785 25.5627 77.0798 25.744C76.7918 25.9147 76.4771 26.032 76.1358 26.096C75.7945 26.1707 75.4745 26.208 75.1758 26.208C74.7918 26.208 74.3918 26.1867 73.9758 26.144C73.5705 26.1013 73.1331 26.0107 72.6638 25.872L72.9038 24.72C73.3838 24.848 73.8211 24.944 74.2158 25.008C74.6105 25.0613 74.9358 25.088 75.1918 25.088C75.3838 25.088 75.5705 25.0667 75.7518 25.024C75.9438 24.9813 76.1145 24.9227 76.2638 24.848C76.4131 24.7627 76.5305 24.656 76.6158 24.528C76.7118 24.4 76.7598 24.256 76.7598 24.096C76.7491 23.7973 76.6478 23.5467 76.4558 23.344C76.2638 23.1307 76.0131 22.944 75.7038 22.784C75.4051 22.6133 75.0798 22.448 74.7278 22.288C74.3865 22.1173 74.0611 21.9253 73.7518 21.712C73.4531 21.488 73.2025 21.2267 72.9998 20.928C72.7971 20.6187 72.6958 20.24 72.6958 19.792C72.6958 19.472 72.7758 19.1893 72.9358 18.944C73.1065 18.688 73.3198 18.48 73.5758 18.32C73.8425 18.1493 74.1305 18.0213 74.4398 17.936C74.7598 17.84 75.0691 17.792 75.3678 17.792C75.6771 17.792 76.0238 17.8187 76.4078 17.872C76.7918 17.9147 77.2345 18 77.7358 18.128L77.5118 19.264Z" fill="white"/>
</g>
<defs>
<filter id="filter0_d_1319_1407" x="-48" y="-46" width="204" height="136" filterUnits="userSpaceOnUse" color-interpolation-filters="sRGB">
<feFlood flood-opacity="0" result="BackgroundImageFix"/>
<feColorMatrix in="SourceAlpha" type="matrix" values="0 0 0 0 0 0 0 0 0 0 0 0 0 0 0 0 0 0 127 0" result="hardAlpha"/>
<feOffset dy="2"/>
<feGaussianBlur stdDeviation="24"/>
<feColorMatrix type="matrix" values="0 0 0 0 0 0 0 0 0 0 0 0 0 0 0 0 0 0 0.04 0"/>
<feBlend mode="normal" in2="BackgroundImageFix" result="effect1_dropShadow_1319_1407"/>
<feBlend mode="normal" in="SourceGraphic" in2="effect1_dropShadow_1319_1407" result="shape"/>
</filter>
<clipPath id="clip0_1319_1407">
<rect width="108" height="40" fill="white"/>
</clipPath>
</defs>
</svg>
