<svg width="108" height="40" viewBox="0 0 108 40" fill="none" xmlns="http://www.w3.org/2000/svg">
<g clip-path="url(#clip0_1319_1404)">
<rect width="108" height="40" rx="8" fill="#48B2E7"/>
<path d="M22.9488 20.544C22.9488 19.5093 23.1088 18.6347 23.4288 17.92C23.7595 17.2053 24.1755 16.6293 24.6768 16.192C25.1888 15.7547 25.7541 15.44 26.3728 15.248C27.0021 15.0453 27.6155 14.944 28.2128 14.944C28.8101 14.944 29.4181 15.0293 30.0368 15.2C30.6661 15.36 31.2315 15.6533 31.7328 16.08C32.2448 16.496 32.6608 17.0667 32.9808 17.792C33.3115 18.5173 33.4768 19.44 33.4768 20.56C33.4768 21.6053 33.3115 22.4853 32.9808 23.2C32.6608 23.9147 32.2448 24.496 31.7328 24.944C31.2315 25.392 30.6661 25.7173 30.0368 25.92C29.4181 26.112 28.8101 26.208 28.2128 26.208C27.6155 26.208 27.0021 26.112 26.3728 25.92C25.7541 25.728 25.1888 25.4133 24.6768 24.976C24.1755 24.5387 23.7595 23.9573 23.4288 23.232C23.1088 22.5067 22.9488 21.6107 22.9488 20.544ZM31.9568 20.624C31.9568 19.184 31.6208 18.0907 30.9488 17.344C30.2875 16.5973 29.3968 16.224 28.2768 16.224C27.7115 16.224 27.1941 16.3147 26.7248 16.496C26.2661 16.6667 25.8661 16.928 25.5248 17.28C25.1941 17.632 24.9328 18.0747 24.7408 18.608C24.5595 19.1307 24.4688 19.7493 24.4688 20.464C24.4688 21.904 24.7995 23.008 25.4608 23.776C26.1328 24.544 27.0288 24.928 28.1488 24.928C28.7035 24.928 29.2155 24.8427 29.6848 24.672C30.1541 24.4907 30.5541 24.2187 30.8848 23.856C31.2261 23.4933 31.4875 23.0453 31.6688 22.512C31.8608 21.9787 31.9568 21.3493 31.9568 20.624ZM41.2571 25.12H41.2251C41.1291 25.1947 40.9904 25.296 40.8091 25.424C40.6277 25.5413 40.4197 25.6587 40.1851 25.776C39.9504 25.8933 39.6891 25.9947 39.4011 26.08C39.1237 26.1653 38.8411 26.208 38.5531 26.208C38.1584 26.208 37.8224 26.1547 37.5451 26.048C37.2677 25.952 37.0437 25.7867 36.8731 25.552C36.7024 25.3173 36.5797 25.008 36.5051 24.624C36.4304 24.24 36.3931 23.76 36.3931 23.184V17.952H37.6731V22.992C37.6731 23.312 37.6784 23.6 37.6891 23.856C37.6997 24.112 37.7371 24.3307 37.8011 24.512C37.8651 24.6933 37.9664 24.8373 38.1051 24.944C38.2544 25.04 38.4624 25.088 38.7291 25.088C39.0064 25.088 39.2944 25.0293 39.5931 24.912C39.8917 24.7947 40.1637 24.6613 40.4091 24.512C40.6971 24.3413 40.9797 24.1493 41.2571 23.936V17.952H42.5371V24.96C42.5477 25.344 42.5744 25.6907 42.6171 26L41.3531 26.128L41.2571 25.12ZM47.7349 15.552V17.952H50.0549V18.992H47.7349V23.264C47.7349 23.616 47.7403 23.9093 47.7509 24.144C47.7723 24.3787 47.8096 24.5653 47.8629 24.704C47.9163 24.8427 47.9909 24.944 48.0869 25.008C48.1829 25.0613 48.3056 25.088 48.4549 25.088C48.8603 25.0773 49.3296 24.928 49.8629 24.64L50.2469 25.616C49.8949 25.8507 49.5643 26.0053 49.2549 26.08C48.9563 26.1653 48.6576 26.208 48.3589 26.208C47.6549 26.208 47.1589 26.0107 46.8709 25.616C46.5936 25.2107 46.4549 24.544 46.4549 23.616V18.992H44.9829V17.952H46.4549V15.712L47.7349 15.552ZM57.6526 19.152C57.2686 19.0453 56.9699 18.9813 56.7566 18.96C56.5432 18.928 56.3246 18.912 56.1006 18.912C55.6526 18.912 55.2686 18.992 54.9486 19.152C54.6286 19.312 54.3619 19.536 54.1486 19.824C53.9459 20.1013 53.7966 20.4267 53.7006 20.8C53.6046 21.1627 53.5566 21.552 53.5566 21.968C53.5566 22.3413 53.5939 22.7147 53.6686 23.088C53.7539 23.4613 53.8819 23.7973 54.0526 24.096C54.2232 24.3947 54.4312 24.6347 54.6766 24.816C54.9219 24.9973 55.2152 25.088 55.5566 25.088C55.7912 25.088 56.0312 25.0453 56.2766 24.96C56.5326 24.8747 56.7672 24.7787 56.9806 24.672C57.1939 24.5547 57.4179 24.4107 57.6526 24.24V19.152ZM57.6686 25.36C57.4232 25.5307 57.1832 25.6747 56.9486 25.792C56.7246 25.8987 56.4739 25.9947 56.1966 26.08C55.9299 26.1653 55.6686 26.208 55.4126 26.208C54.4099 26.208 53.6206 25.856 53.0446 25.152C52.4792 24.4373 52.1966 23.3973 52.1966 22.032C52.1966 21.2213 52.3246 20.544 52.5806 20C52.8472 19.456 53.1779 19.024 53.5726 18.704C53.9672 18.3733 54.3886 18.1387 54.8366 18C55.2952 17.8613 55.7166 17.792 56.1006 17.792C56.2926 17.792 56.4952 17.808 56.7086 17.84C56.9219 17.8613 57.2366 17.9253 57.6526 18.032V14.016L58.9326 13.872V24.544C58.9326 24.6933 58.9326 24.8533 58.9326 25.024C58.9432 25.184 58.9539 25.344 58.9646 25.504C58.9859 25.664 59.0072 25.8293 59.0286 26L57.7966 26.128L57.6686 25.36ZM63.1656 22.016C63.1656 23.0507 63.3949 23.824 63.8536 24.336C64.3229 24.8373 64.9522 25.088 65.7416 25.088C66.5202 25.088 67.1282 24.8373 67.5656 24.336C68.0029 23.8347 68.2216 23.0827 68.2216 22.08C68.2216 21.0133 67.9869 20.2187 67.5176 19.696C67.0589 19.1733 66.4296 18.912 65.6296 18.912C64.8296 18.912 64.2162 19.1733 63.7896 19.696C63.3736 20.208 63.1656 20.9813 63.1656 22.016ZM61.8056 22C61.8056 21.1893 61.9336 20.5173 62.1896 19.984C62.4456 19.44 62.7709 19.008 63.1656 18.688C63.5602 18.3573 63.9816 18.128 64.4296 18C64.8882 17.8613 65.3202 17.792 65.7256 17.792C66.1096 17.792 66.5256 17.856 66.9736 17.984C67.4322 18.1013 67.8536 18.32 68.2376 18.64C68.6216 18.9493 68.9416 19.3707 69.1976 19.904C69.4536 20.4267 69.5816 21.0933 69.5816 21.904C69.5816 22.7467 69.4482 23.4453 69.1816 24C68.9256 24.5547 68.6002 24.9973 68.2056 25.328C67.8109 25.648 67.3842 25.872 66.9256 26C66.4669 26.1387 66.0402 26.208 65.6456 26.208C65.2402 26.208 64.8136 26.144 64.3656 26.016C63.9176 25.888 63.5016 25.6693 63.1176 25.36C62.7442 25.04 62.4296 24.608 62.1736 24.064C61.9282 23.52 61.8056 22.832 61.8056 22ZM73.3531 22.016C73.3531 23.0507 73.5824 23.824 74.0411 24.336C74.5104 24.8373 75.1397 25.088 75.9291 25.088C76.7077 25.088 77.3157 24.8373 77.7531 24.336C78.1904 23.8347 78.4091 23.0827 78.4091 22.08C78.4091 21.0133 78.1744 20.2187 77.7051 19.696C77.2464 19.1733 76.6171 18.912 75.8171 18.912C75.0171 18.912 74.4037 19.1733 73.9771 19.696C73.5611 20.208 73.3531 20.9813 73.3531 22.016ZM71.9931 22C71.9931 21.1893 72.1211 20.5173 72.3771 19.984C72.6331 19.44 72.9584 19.008 73.3531 18.688C73.7477 18.3573 74.1691 18.128 74.6171 18C75.0757 17.8613 75.5077 17.792 75.9131 17.792C76.2971 17.792 76.7131 17.856 77.1611 17.984C77.6197 18.1013 78.0411 18.32 78.4251 18.64C78.8091 18.9493 79.1291 19.3707 79.3851 19.904C79.6411 20.4267 79.7691 21.0933 79.7691 21.904C79.7691 22.7467 79.6357 23.4453 79.3691 24C79.1131 24.5547 78.7877 24.9973 78.3931 25.328C77.9984 25.648 77.5717 25.872 77.1131 26C76.6544 26.1387 76.2277 26.208 75.8331 26.208C75.4277 26.208 75.0011 26.144 74.5531 26.016C74.1051 25.888 73.6891 25.6693 73.3051 25.36C72.9317 25.04 72.6171 24.608 72.3611 24.064C72.1157 23.52 71.9931 22.832 71.9931 22ZM82.6446 19.248C82.6446 19.0027 82.6179 18.6187 82.5646 18.096L83.7486 17.936L83.8766 19.104H83.8926C84.0846 18.8587 84.2712 18.6453 84.4526 18.464C84.6339 18.2827 84.8206 18.128 85.0126 18C85.2152 17.8613 85.4072 17.792 85.5886 17.792C85.8339 17.7813 86.1752 17.808 86.6126 17.872L86.3246 19.104C85.9726 19.04 85.7272 19.0133 85.5886 19.024C85.4072 19.024 85.2152 19.1093 85.0126 19.28C84.8099 19.4507 84.6339 19.632 84.4846 19.824C84.2926 20.0587 84.1059 20.3253 83.9246 20.624V26H82.6446V19.248Z" fill="white"/>
</g>
<defs>
<clipPath id="clip0_1319_1404">
<rect width="108" height="40" fill="white"/>
</clipPath>
</defs>
</svg>
