<svg width="108" height="40" viewBox="0 0 108 40" fill="none" xmlns="http://www.w3.org/2000/svg">
<g clip-path="url(#clip0_1319_1410)">
<g filter="url(#filter0_d_1319_1410)">
<rect width="108" height="40" rx="8" fill="#48B2E7"/>
</g>
<path d="M21.8303 26V14.64H26.6303C27.1209 14.64 27.5689 14.7413 27.9743 14.944C28.3796 15.1467 28.7316 15.424 29.0303 15.776C29.3396 16.1173 29.5743 16.5013 29.7343 16.928C29.9049 17.344 29.9903 17.7707 29.9903 18.208C29.9903 18.752 29.8836 19.264 29.6703 19.744C29.4676 20.224 29.1743 20.6293 28.7903 20.96C28.4169 21.2907 27.9743 21.5093 27.4623 21.616L30.2463 26H28.9823L26.3103 21.808H22.9503V26H21.8303ZM22.9503 20.816H26.6623C27.1103 20.816 27.4996 20.6933 27.8303 20.448C28.1609 20.2027 28.4169 19.8827 28.5983 19.488C28.7796 19.0827 28.8703 18.656 28.8703 18.208C28.8703 17.7493 28.7636 17.328 28.5503 16.944C28.3476 16.5493 28.0703 16.2347 27.7183 16C27.3769 15.7547 26.9929 15.632 26.5663 15.632H22.9503V20.816ZM32.8544 22.56V17.664H33.9424V22.368C33.9424 23.3173 34.1024 24.0267 34.4224 24.496C34.753 24.9653 35.2384 25.2 35.8784 25.2C36.305 25.2 36.7157 25.1093 37.1104 24.928C37.5157 24.736 37.873 24.4693 38.1824 24.128C38.4917 23.776 38.7264 23.3707 38.8864 22.912V17.664H39.9744V24.688C39.9744 24.8373 40.0064 24.9493 40.0704 25.024C40.1344 25.088 40.2304 25.1253 40.3584 25.136V26C40.2304 26.0107 40.129 26.016 40.0544 26.016C39.9797 26.0267 39.9104 26.032 39.8464 26.032C39.633 26.0107 39.4464 25.9253 39.2864 25.776C39.137 25.6267 39.057 25.4453 39.0464 25.232L39.0144 24.112C38.6517 24.752 38.1557 25.2533 37.5264 25.616C36.9077 25.9787 36.2357 26.16 35.5104 26.16C34.6357 26.16 33.9744 25.856 33.5264 25.248C33.0784 24.64 32.8544 23.744 32.8544 22.56ZM50.4424 26H49.3544V21.344C49.3544 20.3627 49.2104 19.648 48.9224 19.2C48.6344 18.7413 48.181 18.512 47.5624 18.512C47.1357 18.512 46.7144 18.6187 46.2984 18.832C45.8824 19.0347 45.5144 19.3173 45.1944 19.68C44.885 20.032 44.661 20.4373 44.5224 20.896V26H43.4344V17.664H44.4264V19.552C44.6504 19.1467 44.9437 18.7947 45.3064 18.496C45.669 18.1867 46.0797 17.9467 46.5384 17.776C46.997 17.6053 47.4717 17.52 47.9624 17.52C48.421 17.52 48.8104 17.6053 49.1304 17.776C49.4504 17.9467 49.7064 18.192 49.8984 18.512C50.0904 18.8213 50.229 19.2 50.3144 19.648C50.3997 20.0853 50.4424 20.576 50.4424 21.12V26ZM60.7705 26H59.6825V21.344C59.6825 20.3627 59.5385 19.648 59.2505 19.2C58.9625 18.7413 58.5092 18.512 57.8905 18.512C57.4638 18.512 57.0425 18.6187 56.6265 18.832C56.2105 19.0347 55.8425 19.3173 55.5225 19.68C55.2132 20.032 54.9892 20.4373 54.8505 20.896V26H53.7625V17.664H54.7545V19.552C54.9785 19.1467 55.2718 18.7947 55.6345 18.496C55.9972 18.1867 56.4078 17.9467 56.8665 17.776C57.3252 17.6053 57.7998 17.52 58.2905 17.52C58.7492 17.52 59.1385 17.6053 59.4585 17.776C59.7785 17.9467 60.0345 18.192 60.2265 18.512C60.4185 18.8213 60.5572 19.2 60.6425 19.648C60.7278 20.0853 60.7705 20.576 60.7705 21.12V26ZM64.0906 26V17.664H65.1786V26H64.0906ZM64.0906 15.92V14.32H65.1786V15.92H64.0906ZM75.583 26H74.495V21.344C74.495 20.3627 74.351 19.648 74.063 19.2C73.775 18.7413 73.3217 18.512 72.703 18.512C72.2763 18.512 71.855 18.6187 71.439 18.832C71.023 19.0347 70.655 19.3173 70.335 19.68C70.0257 20.032 69.8017 20.4373 69.663 20.896V26H68.575V17.664H69.567V19.552C69.791 19.1467 70.0843 18.7947 70.447 18.496C70.8097 18.1867 71.2203 17.9467 71.679 17.776C72.1377 17.6053 72.6123 17.52 73.103 17.52C73.5617 17.52 73.951 17.6053 74.271 17.776C74.591 17.9467 74.847 18.192 75.039 18.512C75.231 18.8213 75.3697 19.2 75.455 19.648C75.5403 20.0853 75.583 20.576 75.583 21.12V26ZM82.2471 26.112C81.6818 26.112 81.1591 25.9947 80.6791 25.76C80.1991 25.5253 79.7831 25.2107 79.4311 24.816C79.0898 24.4107 78.8231 23.952 78.6311 23.44C78.4391 22.928 78.3431 22.4 78.3431 21.856C78.3431 21.2693 78.4338 20.72 78.6151 20.208C78.8071 19.6853 79.0738 19.2213 79.4151 18.816C79.7671 18.4107 80.1778 18.096 80.6471 17.872C81.1165 17.6373 81.6391 17.52 82.2151 17.52C82.9298 17.52 83.5485 17.7013 84.0711 18.064C84.6045 18.4267 85.0525 18.8747 85.4151 19.408V17.664H86.3911V26.032C86.3911 26.8 86.2045 27.4453 85.8311 27.968C85.4685 28.5013 84.9725 28.9013 84.3431 29.168C83.7245 29.4347 83.0471 29.568 82.3111 29.568C81.3618 29.568 80.5938 29.3973 80.0071 29.056C79.4205 28.7147 78.9405 28.256 78.5671 27.68L79.2391 27.152C79.5698 27.6747 80.0071 28.064 80.5511 28.32C81.1058 28.576 81.6925 28.704 82.3111 28.704C82.8551 28.704 83.3511 28.6027 83.7991 28.4C84.2578 28.208 84.6205 27.9147 84.8871 27.52C85.1645 27.1253 85.3031 26.6293 85.3031 26.032V24.384C84.9831 24.9067 84.5458 25.328 83.9911 25.648C83.4365 25.9573 82.8551 26.112 82.2471 26.112ZM82.5511 25.2C82.8818 25.2 83.1965 25.1413 83.4951 25.024C83.8045 24.9067 84.0871 24.752 84.3431 24.56C84.5991 24.3573 84.8125 24.1333 84.9831 23.888C85.1538 23.6427 85.2605 23.392 85.3031 23.136V20.56C85.1431 20.1547 84.9138 19.7973 84.6151 19.488C84.3165 19.168 83.9751 18.9227 83.5911 18.752C83.2178 18.5707 82.8285 18.48 82.4231 18.48C81.9538 18.48 81.5325 18.5813 81.1591 18.784C80.7965 18.976 80.4871 19.2373 80.2311 19.568C79.9858 19.888 79.7938 20.2507 79.6551 20.656C79.5165 21.0613 79.4471 21.4667 79.4471 21.872C79.4471 22.32 79.5271 22.7467 79.6871 23.152C79.8471 23.5467 80.0658 23.904 80.3431 24.224C80.6311 24.5333 80.9618 24.7733 81.3351 24.944C81.7191 25.1147 82.1245 25.2 82.5511 25.2Z" fill="white"/>
</g>
<defs>
<filter id="filter0_d_1319_1410" x="-48" y="-46" width="204" height="136" filterUnits="userSpaceOnUse" color-interpolation-filters="sRGB">
<feFlood flood-opacity="0" result="BackgroundImageFix"/>
<feColorMatrix in="SourceAlpha" type="matrix" values="0 0 0 0 0 0 0 0 0 0 0 0 0 0 0 0 0 0 127 0" result="hardAlpha"/>
<feOffset dy="2"/>
<feGaussianBlur stdDeviation="24"/>
<feColorMatrix type="matrix" values="0 0 0 0 0 0 0 0 0 0 0 0 0 0 0 0 0 0 0.04 0"/>
<feBlend mode="normal" in2="BackgroundImageFix" result="effect1_dropShadow_1319_1410"/>
<feBlend mode="normal" in="SourceGraphic" in2="effect1_dropShadow_1319_1410" result="shape"/>
</filter>
<clipPath id="clip0_1319_1410">
<rect width="108" height="40" fill="white"/>
</clipPath>
</defs>
</svg>
