<svg width="24" height="24" viewBox="0 0 24 24" fill="none" xmlns="http://www.w3.org/2000/svg">
<path d="M11.8501 0.849609V7.61884" stroke="white" stroke-width="1.7" stroke-linecap="round" stroke-linejoin="round"/>
<path d="M0.850098 8.61914C0.850098 8.06686 1.29781 7.61914 1.8501 7.61914H21.8501C22.4024 7.61914 22.8501 8.06686 22.8501 8.61914V21.1576C22.8501 21.6064 22.6717 22.0369 22.3544 22.3542C22.0371 22.6715 21.6066 22.8499 21.1578 22.8499H2.54241C2.09357 22.8499 1.66313 22.6715 1.34576 22.3542C1.02839 22.0369 0.850098 21.6064 0.850098 21.1576V8.61914Z" stroke="white" stroke-width="1.7" stroke-linecap="round" stroke-linejoin="round"/>
<path d="M0.850098 7.61884L3.38856 2.72807C3.66222 2.17684 4.081 1.71066 4.59985 1.37967C5.11869 1.04868 5.71795 0.865422 6.33317 0.849609H17.367C17.9967 0.849943 18.6137 1.02593 19.149 1.35777C19.6841 1.68962 20.116 2.16418 20.3963 2.72807L22.8501 7.61884" stroke="white" stroke-width="1.7" stroke-linecap="round" stroke-linejoin="round"/>
<path d="M16.0789 11.8496L11.6077 17.8185C11.2766 18.2605 10.6498 18.3504 10.2078 18.0193L7.62354 16.0835" stroke="white" stroke-width="1.7" stroke-linecap="round" stroke-linejoin="round"/>
</svg>
