<svg width="18" height="24" viewBox="0 0 18 24" fill="none" xmlns="http://www.w3.org/2000/svg">
<path d="M15.0894 9.97519L14.2448 10.071V10.071L15.0894 9.97519ZM15.5366 13.9153L16.3812 13.8194V13.8194L15.5366 13.9153ZM2.16313 13.9153L1.31855 13.8194V13.8194L2.16313 13.9153ZM2.61032 9.97519L3.4549 10.071V10.071L2.61032 9.97519ZM1.29764 15.8721L0.650384 15.3212H0.650384L1.29764 15.8721ZM16.4021 15.8721L15.7548 16.4231V16.4231L16.4021 15.8721ZM11.1198 5.37366H10.2698C10.2698 5.73699 10.5007 6.06014 10.8445 6.17783L11.1198 5.37366ZM6.57991 5.37366L6.85525 6.17783C7.19898 6.06014 7.42991 5.73699 7.42991 5.37366H6.57991ZM12.6458 21.2983C12.8105 20.8587 12.5877 20.3688 12.1482 20.2041C11.7086 20.0393 11.2187 20.2621 11.0539 20.7017L11.8499 21L12.6458 21.2983ZM6.64579 20.7017C6.48105 20.2621 5.99114 20.0393 5.55156 20.2041C5.11197 20.3688 4.88917 20.8587 5.05391 21.2983L5.84985 21L6.64579 20.7017ZM14.627 19V18.15H3.07267V19V19.85H14.627V19ZM15.0894 9.97519L14.2448 10.071L14.692 14.0111L15.5366 13.9153L16.3812 13.8194L15.934 9.87933L15.0894 9.97519ZM2.16313 13.9153L3.00771 14.0111L3.4549 10.071L2.61032 9.97519L1.76574 9.87933L1.31855 13.8194L2.16313 13.9153ZM1.29764 15.8721L1.94489 16.4231C2.53443 15.7305 2.90714 14.8972 3.00771 14.0111L2.16313 13.9153L1.31855 13.8194C1.25804 14.3526 1.03216 14.8727 0.650384 15.3212L1.29764 15.8721ZM15.5366 13.9153L14.692 14.0111C14.7926 14.8972 15.1653 15.7305 15.7548 16.4231L16.4021 15.8721L17.0493 15.3212C16.6675 14.8727 16.4417 14.3526 16.3812 13.8194L15.5366 13.9153ZM3.07267 19V18.15C2.45218 18.15 2.02279 17.8442 1.82738 17.4998C1.64037 17.1703 1.64204 16.7789 1.94489 16.4231L1.29764 15.8721L0.650384 15.3212C-0.143789 16.2541 -0.168795 17.4267 0.348867 18.3389C0.858139 19.2363 1.86477 19.85 3.07267 19.85V19ZM14.627 19V19.85C15.8349 19.85 16.8416 19.2363 17.3508 18.3389C17.8685 17.4267 17.8435 16.2541 17.0493 15.3212L16.4021 15.8721L15.7548 16.4231C16.0577 16.7789 16.0593 17.1703 15.8723 17.4998C15.6769 17.8442 15.2475 18.15 14.627 18.15V19ZM11.1198 5.37366H11.9698V5.26995H11.1198H10.2698V5.37366H11.1198ZM15.0894 9.97519L15.934 9.87933C15.6496 7.37421 13.7928 5.39044 11.3951 4.56949L11.1198 5.37366L10.8445 6.17783C12.7316 6.82395 14.0469 8.32706 14.2448 10.071L15.0894 9.97519ZM6.57991 5.37366H7.42991V5.26995H6.57991H5.72991V5.37366H6.57991ZM2.61032 9.97519L3.4549 10.071C3.65283 8.32706 4.96816 6.82395 6.85525 6.17783L6.57991 5.37366L6.30457 4.56949C3.90687 5.39044 2.05006 7.37421 1.76574 9.87933L2.61032 9.97519ZM8.84985 3V3.85C9.63407 3.85 10.2698 4.48573 10.2698 5.26995H11.1198H11.9698C11.9698 3.54685 10.573 2.15 8.84985 2.15V3ZM8.84985 3V2.15C7.12676 2.15 5.72991 3.54685 5.72991 5.26995H6.57991H7.42991C7.42991 4.48573 8.06564 3.85 8.84985 3.85V3ZM11.8499 21L11.0539 20.7017C10.7464 21.5223 9.89438 22.15 8.84985 22.15V23V23.85C10.5754 23.85 12.0799 22.8081 12.6458 21.2983L11.8499 21ZM8.84985 23V22.15C7.80533 22.15 6.95331 21.5223 6.64579 20.7017L5.84985 21L5.05391 21.2983C5.61976 22.8081 7.12432 23.85 8.84985 23.85V23Z" fill="white"/>
<circle cx="13.8499" cy="4" r="4" fill="#F87265"/>
</svg>
