<svg width="58" height="104" viewBox="0 0 58 104" fill="none" xmlns="http://www.w3.org/2000/svg">
<g clip-path="url(#clip0_1319_3652)">
<rect width="58" height="104" rx="8" fill="#48ABE7"/>
<path d="M39.5773 53.3882C39.3255 55.3082 38.5558 57.1234 37.3508 58.6391C36.1458 60.1549 34.5509 61.314 32.7372 61.9923C30.9235 62.6705 28.9594 62.8422 27.0555 62.489C25.1516 62.1358 23.3797 61.271 21.93 59.9873C20.4802 58.7036 19.4073 57.0495 18.8261 55.2024C18.245 53.3553 18.1777 51.3848 18.6313 49.5023C19.085 47.6198 20.0425 45.8964 21.4012 44.5167C22.7599 43.137 24.4686 42.1533 26.3439 41.6709C31.5426 40.3376 36.9239 43.0136 38.9106 48.0002" stroke="white" stroke-width="2" stroke-linecap="round" stroke-linejoin="round"/>
<path d="M39.6667 41.334V48.0007H33" stroke="white" stroke-width="2" stroke-linecap="round" stroke-linejoin="round"/>
</g>
<defs>
<clipPath id="clip0_1319_3652">
<rect width="58" height="104" fill="white"/>
</clipPath>
</defs>
</svg>
