<svg width="28" height="24" viewBox="0 0 28 24" fill="none" xmlns="http://www.w3.org/2000/svg">
<path opacity="0.2" d="M0.75 0V24" stroke="#707B81" stroke-width="1.5"/>
<path d="M26.75 11V12C26.75 15.866 23.616 19 19.75 19M12.75 11V12C12.75 15.866 15.884 19 19.75 19M19.75 19V22M19.75 22H22.75M19.75 22H16.75M19.75 16C17.5409 16 15.75 14.2091 15.75 12V6C15.75 3.79086 17.5409 2 19.75 2C21.9591 2 23.75 3.79086 23.75 6V12C23.75 14.2091 21.9591 16 19.75 16Z" stroke="#707B81" stroke-width="1.5" stroke-linecap="round" stroke-linejoin="round"/>
</svg>
