<svg width="58" height="104" viewBox="0 0 58 104" fill="none" xmlns="http://www.w3.org/2000/svg">
<rect width="58" height="104" rx="8" fill="#F87265"/>
<path d="M24.2 57.744L29 52.944L33.8 57.744L34.744 56.8L29.944 52L34.744 47.2L33.8 46.256L29 51.056L24.2 46.256L23.256 47.2L28.056 52L23.256 56.8L24.2 57.744ZM29.004 64C27.3453 64 25.7853 63.6853 24.324 63.056C22.8636 62.4258 21.5929 61.5707 20.512 60.4907C19.4311 59.4107 18.5756 58.1413 17.9453 56.6827C17.3151 55.224 17 53.6644 17 52.004C17 50.3436 17.3151 48.7836 17.9453 47.324C18.5747 45.8636 19.4284 44.5929 20.5067 43.512C21.5849 42.4311 22.8547 41.5756 24.316 40.9453C25.7773 40.3151 27.3373 40 28.996 40C30.6547 40 32.2147 40.3151 33.676 40.9453C35.1364 41.5747 36.4071 42.4289 37.488 43.508C38.5689 44.5871 39.4244 45.8569 40.0547 47.3173C40.6849 48.7778 41 50.3373 41 51.996C41 53.6547 40.6853 55.2147 40.056 56.676C39.4267 58.1373 38.5716 59.408 37.4907 60.488C36.4098 61.568 35.1404 62.4236 33.6827 63.0547C32.2249 63.6858 30.6653 64.0009 29.004 64ZM29 62.6667C31.9778 62.6667 34.5 61.6333 36.5667 59.5667C38.6333 57.5 39.6667 54.9778 39.6667 52C39.6667 49.0222 38.6333 46.5 36.5667 44.4333C34.5 42.3667 31.9778 41.3333 29 41.3333C26.0222 41.3333 23.5 42.3667 21.4333 44.4333C19.3667 46.5 18.3333 49.0222 18.3333 52C18.3333 54.9778 19.3667 57.5 21.4333 59.5667C23.5 61.6333 26.0222 62.6667 29 62.6667Z" fill="white"/>
</svg>
