<svg width="108" height="40" viewBox="0 0 108 40" fill="none" xmlns="http://www.w3.org/2000/svg">
<g clip-path="url(#clip0_1319_1401)">
<g filter="url(#filter0_d_1319_1401)">
<rect width="108" height="40" rx="8" fill="white"/>
</g>
<path d="M46.9401 13.432C47.6521 13.432 48.2481 13.5 48.7281 13.636C49.2161 13.772 49.5801 13.996 49.8201 14.308C50.0681 14.62 50.1921 15.036 50.1921 15.556C50.1921 15.892 50.1281 16.192 50.0001 16.456C49.8801 16.712 49.6961 16.928 49.4481 17.104C49.2081 17.272 48.9121 17.388 48.5601 17.452V17.512C48.9201 17.568 49.2441 17.672 49.5321 17.824C49.8281 17.976 50.0601 18.192 50.2281 18.472C50.3961 18.752 50.4801 19.116 50.4801 19.564C50.4801 20.084 50.3601 20.528 50.1201 20.896C49.8801 21.256 49.5361 21.532 49.0881 21.724C48.6481 21.908 48.1201 22 47.5041 22H44.4921V13.432H46.9401ZM47.1561 17.08C47.8921 17.08 48.3961 16.964 48.6681 16.732C48.9401 16.492 49.0761 16.14 49.0761 15.676C49.0761 15.204 48.9081 14.868 48.5721 14.668C48.2441 14.46 47.7161 14.356 46.9881 14.356H45.5721V17.08H47.1561ZM45.5721 17.98V21.088H47.3001C48.0601 21.088 48.5881 20.94 48.8841 20.644C49.1801 20.348 49.3281 19.96 49.3281 19.48C49.3281 19.176 49.2601 18.912 49.1241 18.688C48.9961 18.464 48.7761 18.292 48.4641 18.172C48.1601 18.044 47.7441 17.98 47.2161 17.98H45.5721ZM55.7328 22.12C55.1648 22.12 54.6568 22.004 54.2088 21.772C53.7688 21.54 53.4208 21.18 53.1648 20.692C52.9168 20.204 52.7928 19.58 52.7928 18.82C52.7928 18.028 52.9248 17.384 53.1888 16.888C53.4528 16.392 53.8088 16.028 54.2568 15.796C54.7128 15.564 55.2288 15.448 55.8048 15.448C56.1328 15.448 56.4488 15.484 56.7528 15.556C57.0568 15.62 57.3048 15.7 57.4968 15.796L57.1728 16.672C56.9808 16.6 56.7568 16.532 56.5008 16.468C56.2448 16.404 56.0048 16.372 55.7808 16.372C55.3488 16.372 54.9928 16.464 54.7128 16.648C54.4328 16.832 54.2248 17.104 54.0888 17.464C53.9528 17.824 53.8848 18.272 53.8848 18.808C53.8848 19.32 53.9528 19.756 54.0888 20.116C54.2248 20.476 54.4288 20.748 54.7008 20.932C54.9728 21.116 55.3128 21.208 55.7208 21.208C56.0728 21.208 56.3808 21.172 56.6448 21.1C56.9168 21.028 57.1648 20.94 57.3888 20.836V21.772C57.1728 21.884 56.9328 21.968 56.6688 22.024C56.4128 22.088 56.1008 22.12 55.7328 22.12ZM62.4024 15.448C62.9544 15.448 63.4264 15.568 63.8184 15.808C64.2184 16.048 64.5224 16.388 64.7304 16.828C64.9464 17.26 65.0544 17.768 65.0544 18.352V18.988H60.6504C60.6664 19.716 60.8504 20.272 61.2024 20.656C61.5624 21.032 62.0624 21.22 62.7024 21.22C63.1104 21.22 63.4704 21.184 63.7824 21.112C64.1024 21.032 64.4304 20.92 64.7664 20.776V21.7C64.4384 21.844 64.1144 21.948 63.7944 22.012C63.4744 22.084 63.0944 22.12 62.6544 22.12C62.0464 22.12 61.5064 21.996 61.0344 21.748C60.5704 21.5 60.2064 21.132 59.9424 20.644C59.6864 20.148 59.5584 19.544 59.5584 18.832C59.5584 18.128 59.6744 17.524 59.9064 17.02C60.1464 16.516 60.4784 16.128 60.9024 15.856C61.3344 15.584 61.8344 15.448 62.4024 15.448ZM62.3904 16.312C61.8864 16.312 61.4864 16.476 61.1904 16.804C60.9024 17.124 60.7304 17.572 60.6744 18.148H63.9504C63.9504 17.78 63.8944 17.46 63.7824 17.188C63.6704 16.916 63.4984 16.704 63.2664 16.552C63.0424 16.392 62.7504 16.312 62.3904 16.312Z" fill="#2B2B2B"/>
</g>
<defs>
<filter id="filter0_d_1319_1401" x="-48" y="-46" width="204" height="136" filterUnits="userSpaceOnUse" color-interpolation-filters="sRGB">
<feFlood flood-opacity="0" result="BackgroundImageFix"/>
<feColorMatrix in="SourceAlpha" type="matrix" values="0 0 0 0 0 0 0 0 0 0 0 0 0 0 0 0 0 0 127 0" result="hardAlpha"/>
<feOffset dy="2"/>
<feGaussianBlur stdDeviation="24"/>
<feColorMatrix type="matrix" values="0 0 0 0 0 0 0 0 0 0 0 0 0 0 0 0 0 0 0.04 0"/>
<feBlend mode="normal" in2="BackgroundImageFix" result="effect1_dropShadow_1319_1401"/>
<feBlend mode="normal" in="SourceGraphic" in2="effect1_dropShadow_1319_1401" result="shape"/>
</filter>
<clipPath id="clip0_1319_1401">
<rect width="108" height="40" fill="white"/>
</clipPath>
</defs>
</svg>
