<svg width="108" height="40" viewBox="0 0 108 40" fill="none" xmlns="http://www.w3.org/2000/svg">
<g clip-path="url(#clip0_1319_1410)">
<g filter="url(#filter0_d_1319_1410)">
<rect width="108" height="40" rx="8" fill="white"/>
</g>
<path d="M29.1227 22V13.48H32.7227C33.0907 13.48 33.4267 13.556 33.7307 13.708C34.0347 13.86 34.2987 14.068 34.5227 14.332C34.7547 14.588 34.9307 14.876 35.0507 15.196C35.1787 15.508 35.2427 15.828 35.2427 16.156C35.2427 16.564 35.1627 16.948 35.0027 17.308C34.8507 17.668 34.6307 17.972 34.3427 18.22C34.0627 18.468 33.7307 18.632 33.3467 18.712L35.4347 22H34.4867L32.4827 18.856H29.9627V22H29.1227ZM29.9627 18.112H32.7467C33.0827 18.112 33.3747 18.02 33.6227 17.836C33.8707 17.652 34.0627 17.412 34.1987 17.116C34.3347 16.812 34.4027 16.492 34.4027 16.156C34.4027 15.812 34.3227 15.496 34.1627 15.208C34.0107 14.912 33.8027 14.676 33.5387 14.5C33.2827 14.316 32.9947 14.224 32.6747 14.224H29.9627V18.112ZM37.6408 19.42V15.748H38.4568V19.276C38.4568 19.988 38.5768 20.52 38.8168 20.872C39.0648 21.224 39.4288 21.4 39.9088 21.4C40.2288 21.4 40.5368 21.332 40.8328 21.196C41.1368 21.052 41.4048 20.852 41.6368 20.596C41.8688 20.332 42.0448 20.028 42.1648 19.684V15.748H42.9808V21.016C42.9808 21.128 43.0048 21.212 43.0528 21.268C43.1008 21.316 43.1728 21.344 43.2688 21.352V22C43.1728 22.008 43.0968 22.012 43.0408 22.012C42.9848 22.02 42.9328 22.024 42.8848 22.024C42.7248 22.008 42.5848 21.944 42.4648 21.832C42.3528 21.72 42.2928 21.584 42.2848 21.424L42.2608 20.584C41.9888 21.064 41.6168 21.44 41.1448 21.712C40.6808 21.984 40.1768 22.12 39.6328 22.12C38.9768 22.12 38.4808 21.892 38.1448 21.436C37.8088 20.98 37.6408 20.308 37.6408 19.42ZM51.0818 22H50.2658V18.508C50.2658 17.772 50.1578 17.236 49.9418 16.9C49.7258 16.556 49.3858 16.384 48.9218 16.384C48.6018 16.384 48.2858 16.464 47.9738 16.624C47.6618 16.776 47.3858 16.988 47.1458 17.26C46.9138 17.524 46.7458 17.828 46.6418 18.172V22H45.8258V15.748H46.5698V17.164C46.7378 16.86 46.9578 16.596 47.2298 16.372C47.5018 16.14 47.8098 15.96 48.1538 15.832C48.4978 15.704 48.8538 15.64 49.2218 15.64C49.5658 15.64 49.8578 15.704 50.0978 15.832C50.3378 15.96 50.5298 16.144 50.6738 16.384C50.8178 16.616 50.9218 16.9 50.9858 17.236C51.0498 17.564 51.0818 17.932 51.0818 18.34V22ZM59.0779 22H58.2619V18.508C58.2619 17.772 58.1539 17.236 57.9379 16.9C57.7219 16.556 57.3819 16.384 56.9179 16.384C56.5979 16.384 56.2819 16.464 55.9699 16.624C55.6579 16.776 55.3819 16.988 55.1419 17.26C54.9099 17.524 54.7419 17.828 54.6379 18.172V22H53.8219V15.748H54.5659V17.164C54.7339 16.86 54.9539 16.596 55.2259 16.372C55.4979 16.14 55.8059 15.96 56.1499 15.832C56.4939 15.704 56.8499 15.64 57.2179 15.64C57.5619 15.64 57.8539 15.704 58.0939 15.832C58.3339 15.96 58.5259 16.144 58.6699 16.384C58.8139 16.616 58.9179 16.9 58.9819 17.236C59.0459 17.564 59.0779 17.932 59.0779 18.34V22ZM61.818 22V15.748H62.634V22H61.818ZM61.818 14.44V13.24H62.634V14.44H61.818ZM70.6873 22H69.8713V18.508C69.8713 17.772 69.7633 17.236 69.5473 16.9C69.3313 16.556 68.9913 16.384 68.5273 16.384C68.2073 16.384 67.8913 16.464 67.5793 16.624C67.2673 16.776 66.9913 16.988 66.7513 17.26C66.5193 17.524 66.3513 17.828 66.2473 18.172V22H65.4313V15.748H66.1753V17.164C66.3433 16.86 66.5633 16.596 66.8353 16.372C67.1073 16.14 67.4153 15.96 67.7593 15.832C68.1033 15.704 68.4593 15.64 68.8273 15.64C69.1713 15.64 69.4633 15.704 69.7033 15.832C69.9433 15.96 70.1353 16.144 70.2793 16.384C70.4233 16.616 70.5273 16.9 70.5912 17.236C70.6553 17.564 70.6873 17.932 70.6873 18.34V22ZM75.9353 22.084C75.5113 22.084 75.1193 21.996 74.7593 21.82C74.3993 21.644 74.0873 21.408 73.8233 21.112C73.5673 20.808 73.3673 20.464 73.2233 20.08C73.0793 19.696 73.0073 19.3 73.0073 18.892C73.0073 18.452 73.0753 18.04 73.2113 17.656C73.3553 17.264 73.5553 16.916 73.8113 16.612C74.0753 16.308 74.3833 16.072 74.7353 15.904C75.0873 15.728 75.4793 15.64 75.9113 15.64C76.4473 15.64 76.9113 15.776 77.3033 16.048C77.7033 16.32 78.0393 16.656 78.3113 17.056V15.748H79.0433V22.024C79.0433 22.6 78.9033 23.084 78.6233 23.476C78.3513 23.876 77.9793 24.176 77.5073 24.376C77.0433 24.576 76.5353 24.676 75.9833 24.676C75.2713 24.676 74.6953 24.548 74.2553 24.292C73.8153 24.036 73.4553 23.692 73.1753 23.26L73.6793 22.864C73.9273 23.256 74.2553 23.548 74.6633 23.74C75.0793 23.932 75.5193 24.028 75.9833 24.028C76.3913 24.028 76.7633 23.952 77.0993 23.8C77.4433 23.656 77.7153 23.436 77.9153 23.14C78.1233 22.844 78.2273 22.472 78.2273 22.024V20.788C77.9873 21.18 77.6593 21.496 77.2433 21.736C76.8273 21.968 76.3913 22.084 75.9353 22.084ZM76.1633 21.4C76.4113 21.4 76.6473 21.356 76.8713 21.268C77.1033 21.18 77.3153 21.064 77.5073 20.92C77.6993 20.768 77.8593 20.6 77.9873 20.416C78.1153 20.232 78.1953 20.044 78.2273 19.852V17.92C78.1073 17.616 77.9353 17.348 77.7113 17.116C77.4873 16.876 77.2313 16.692 76.9433 16.564C76.6633 16.428 76.3713 16.36 76.0673 16.36C75.7153 16.36 75.3993 16.436 75.1193 16.588C74.8473 16.732 74.6153 16.928 74.4233 17.176C74.2393 17.416 74.0953 17.688 73.9913 17.992C73.8873 18.296 73.8353 18.6 73.8353 18.904C73.8353 19.24 73.8953 19.56 74.0153 19.864C74.1353 20.16 74.2993 20.428 74.5073 20.668C74.7233 20.9 74.9713 21.08 75.2513 21.208C75.5393 21.336 75.8433 21.4 76.1633 21.4Z" fill="#2B2B2B"/>
</g>
<defs>
<filter id="filter0_d_1319_1410" x="-48" y="-46" width="204" height="136" filterUnits="userSpaceOnUse" color-interpolation-filters="sRGB">
<feFlood flood-opacity="0" result="BackgroundImageFix"/>
<feColorMatrix in="SourceAlpha" type="matrix" values="0 0 0 0 0 0 0 0 0 0 0 0 0 0 0 0 0 0 127 0" result="hardAlpha"/>
<feOffset dy="2"/>
<feGaussianBlur stdDeviation="24"/>
<feColorMatrix type="matrix" values="0 0 0 0 0 0 0 0 0 0 0 0 0 0 0 0 0 0 0.04 0"/>
<feBlend mode="normal" in2="BackgroundImageFix" result="effect1_dropShadow_1319_1410"/>
<feBlend mode="normal" in="SourceGraphic" in2="effect1_dropShadow_1319_1410" result="shape"/>
</filter>
<clipPath id="clip0_1319_1410">
<rect width="108" height="40" fill="white"/>
</clipPath>
</defs>
</svg>
