<svg width="108" height="40" viewBox="0 0 108 40" fill="none" xmlns="http://www.w3.org/2000/svg">
<g clip-path="url(#clip0_1319_1404)">
<rect width="108" height="40" rx="8" fill="white"/>
<path d="M30.0866 17.908C30.0866 17.132 30.2066 16.476 30.4466 15.94C30.6946 15.404 31.0066 14.972 31.3826 14.644C31.7666 14.316 32.1906 14.08 32.6546 13.936C33.1266 13.784 33.5866 13.708 34.0346 13.708C34.4826 13.708 34.9386 13.772 35.4026 13.9C35.8746 14.02 36.2986 14.24 36.6746 14.56C37.0586 14.872 37.3706 15.3 37.6106 15.844C37.8586 16.388 37.9826 17.08 37.9826 17.92C37.9826 18.704 37.8586 19.364 37.6106 19.9C37.3706 20.436 37.0586 20.872 36.6746 21.208C36.2986 21.544 35.8746 21.788 35.4026 21.94C34.9386 22.084 34.4826 22.156 34.0346 22.156C33.5866 22.156 33.1266 22.084 32.6546 21.94C32.1906 21.796 31.7666 21.56 31.3826 21.232C31.0066 20.904 30.6946 20.468 30.4466 19.924C30.2066 19.38 30.0866 18.708 30.0866 17.908ZM36.8426 17.968C36.8426 16.888 36.5906 16.068 36.0866 15.508C35.5906 14.948 34.9226 14.668 34.0826 14.668C33.6586 14.668 33.2706 14.736 32.9186 14.872C32.5746 15 32.2746 15.196 32.0186 15.46C31.7706 15.724 31.5746 16.056 31.4306 16.456C31.2946 16.848 31.2266 17.312 31.2266 17.848C31.2266 18.928 31.4746 19.756 31.9706 20.332C32.4746 20.908 33.1466 21.196 33.9866 21.196C34.4026 21.196 34.7866 21.132 35.1386 21.004C35.4906 20.868 35.7906 20.664 36.0386 20.392C36.2946 20.12 36.4906 19.784 36.6266 19.384C36.7706 18.984 36.8426 18.512 36.8426 17.968ZM44.0678 21.34H44.0438C43.9718 21.396 43.8678 21.472 43.7318 21.568C43.5958 21.656 43.4398 21.744 43.2638 21.832C43.0878 21.92 42.8918 21.996 42.6758 22.06C42.4678 22.124 42.2558 22.156 42.0398 22.156C41.7438 22.156 41.4918 22.116 41.2838 22.036C41.0758 21.964 40.9078 21.84 40.7798 21.664C40.6518 21.488 40.5598 21.256 40.5038 20.968C40.4478 20.68 40.4198 20.32 40.4198 19.888V15.964H41.3798V19.744C41.3798 19.984 41.3838 20.2 41.3918 20.392C41.3998 20.584 41.4278 20.748 41.4758 20.884C41.5238 21.02 41.5998 21.128 41.7038 21.208C41.8158 21.28 41.9718 21.316 42.1718 21.316C42.3798 21.316 42.5958 21.272 42.8198 21.184C43.0438 21.096 43.2478 20.996 43.4318 20.884C43.6478 20.756 43.8598 20.612 44.0678 20.452V15.964H45.0278V21.22C45.0358 21.508 45.0558 21.768 45.0878 22L44.1398 22.096L44.0678 21.34ZM49.1762 14.164V15.964H50.9162V16.744H49.1762V19.948C49.1762 20.212 49.1802 20.432 49.1882 20.608C49.2042 20.784 49.2322 20.924 49.2722 21.028C49.3122 21.132 49.3682 21.208 49.4402 21.256C49.5122 21.296 49.6042 21.316 49.7162 21.316C50.0202 21.308 50.3722 21.196 50.7722 20.98L51.0602 21.712C50.7962 21.888 50.5482 22.004 50.3162 22.06C50.0922 22.124 49.8682 22.156 49.6442 22.156C49.1162 22.156 48.7442 22.008 48.5282 21.712C48.3202 21.408 48.2162 20.908 48.2162 20.212V16.744H47.1122V15.964H48.2162V14.284L49.1762 14.164ZM56.8644 16.864C56.5764 16.784 56.3524 16.736 56.1924 16.72C56.0324 16.696 55.8684 16.684 55.7004 16.684C55.3644 16.684 55.0764 16.744 54.8364 16.864C54.5964 16.984 54.3964 17.152 54.2364 17.368C54.0844 17.576 53.9724 17.82 53.9004 18.1C53.8284 18.372 53.7924 18.664 53.7924 18.976C53.7924 19.256 53.8204 19.536 53.8764 19.816C53.9404 20.096 54.0364 20.348 54.1644 20.572C54.2924 20.796 54.4484 20.976 54.6324 21.112C54.8164 21.248 55.0364 21.316 55.2924 21.316C55.4684 21.316 55.6484 21.284 55.8324 21.22C56.0244 21.156 56.2004 21.084 56.3604 21.004C56.5204 20.916 56.6884 20.808 56.8644 20.68V16.864ZM56.8764 21.52C56.6924 21.648 56.5124 21.756 56.3364 21.844C56.1684 21.924 55.9804 21.996 55.7724 22.06C55.5724 22.124 55.3764 22.156 55.1844 22.156C54.4324 22.156 53.8404 21.892 53.4084 21.364C52.9844 20.828 52.7724 20.048 52.7724 19.024C52.7724 18.416 52.8684 17.908 53.0604 17.5C53.2604 17.092 53.5084 16.768 53.8044 16.528C54.1004 16.28 54.4164 16.104 54.7524 16C55.0964 15.896 55.4124 15.844 55.7004 15.844C55.8444 15.844 55.9964 15.856 56.1564 15.88C56.3164 15.896 56.5524 15.944 56.8644 16.024V13.012L57.8244 12.904V20.908C57.8244 21.02 57.8244 21.14 57.8244 21.268C57.8324 21.388 57.8404 21.508 57.8484 21.628C57.8644 21.748 57.8804 21.872 57.8964 22L56.9724 22.096L56.8764 21.52ZM61.2492 19.012C61.2492 19.788 61.4212 20.368 61.7652 20.752C62.1172 21.128 62.5892 21.316 63.1812 21.316C63.7652 21.316 64.2212 21.128 64.5492 20.752C64.8772 20.376 65.0412 19.812 65.0412 19.06C65.0412 18.26 64.8652 17.664 64.5132 17.272C64.1692 16.88 63.6972 16.684 63.0972 16.684C62.4972 16.684 62.0372 16.88 61.7172 17.272C61.4052 17.656 61.2492 18.236 61.2492 19.012ZM60.2292 19C60.2292 18.392 60.3252 17.888 60.5172 17.488C60.7092 17.08 60.9532 16.756 61.2492 16.516C61.5452 16.268 61.8612 16.096 62.1972 16C62.5412 15.896 62.8652 15.844 63.1692 15.844C63.4572 15.844 63.7692 15.892 64.1052 15.988C64.4492 16.076 64.7652 16.24 65.0532 16.48C65.3412 16.712 65.5812 17.028 65.7732 17.428C65.9652 17.82 66.0612 18.32 66.0612 18.928C66.0612 19.56 65.9612 20.084 65.7612 20.5C65.5692 20.916 65.3252 21.248 65.0292 21.496C64.7332 21.736 64.4132 21.904 64.0692 22C63.7252 22.104 63.4052 22.156 63.1092 22.156C62.8052 22.156 62.4852 22.108 62.1492 22.012C61.8132 21.916 61.5012 21.752 61.2132 21.52C60.9332 21.28 60.6972 20.956 60.5052 20.548C60.3212 20.14 60.2292 19.624 60.2292 19ZM69.1398 19.012C69.1398 19.788 69.3118 20.368 69.6558 20.752C70.0078 21.128 70.4798 21.316 71.0718 21.316C71.6558 21.316 72.1118 21.128 72.4398 20.752C72.7678 20.376 72.9318 19.812 72.9318 19.06C72.9318 18.26 72.7558 17.664 72.4038 17.272C72.0598 16.88 71.5878 16.684 70.9878 16.684C70.3878 16.684 69.9278 16.88 69.6078 17.272C69.2958 17.656 69.1398 18.236 69.1398 19.012ZM68.1198 19C68.1198 18.392 68.2158 17.888 68.4078 17.488C68.5998 17.08 68.8438 16.756 69.1398 16.516C69.4358 16.268 69.7518 16.096 70.0878 16C70.4318 15.896 70.7558 15.844 71.0598 15.844C71.3478 15.844 71.6598 15.892 71.9958 15.988C72.3398 16.076 72.6558 16.24 72.9438 16.48C73.2318 16.712 73.4718 17.028 73.6638 17.428C73.8558 17.82 73.9518 18.32 73.9518 18.928C73.9518 19.56 73.8518 20.084 73.6518 20.5C73.4598 20.916 73.2158 21.248 72.9198 21.496C72.6238 21.736 72.3038 21.904 71.9598 22C71.6158 22.104 71.2958 22.156 70.9998 22.156C70.6958 22.156 70.3758 22.108 70.0398 22.012C69.7038 21.916 69.3918 21.752 69.1038 21.52C68.8238 21.28 68.5878 20.956 68.3958 20.548C68.2118 20.14 68.1198 19.624 68.1198 19ZM76.3584 16.936C76.3584 16.752 76.3384 16.464 76.2984 16.072L77.1864 15.952L77.2824 16.828H77.2944C77.4384 16.644 77.5784 16.484 77.7144 16.348C77.8504 16.212 77.9904 16.096 78.1344 16C78.2864 15.896 78.4304 15.844 78.5664 15.844C78.7504 15.836 79.0064 15.856 79.3344 15.904L79.1184 16.828C78.8544 16.78 78.6704 16.76 78.5664 16.768C78.4304 16.768 78.2864 16.832 78.1344 16.96C77.9824 17.088 77.8504 17.224 77.7384 17.368C77.5944 17.544 77.4544 17.744 77.3184 17.968V22H76.3584V16.936Z" fill="#2B2B2B"/>
</g>
<defs>
<clipPath id="clip0_1319_1404">
<rect width="108" height="40" fill="white"/>
</clipPath>
</defs>
</svg>
