<svg width="107" height="40" viewBox="0 0 107 40" fill="none" xmlns="http://www.w3.org/2000/svg">
<g clip-path="url(#clip0_1319_1407)">
<g filter="url(#filter0_d_1319_1407)">
<rect width="108" height="40" rx="8" fill="white"/>
</g>
<path d="M38.0122 14.752H35.4442V13.816H41.5882V14.752H39.0202V22H38.0122V14.752ZM47.205 21.856C47.021 21.912 46.829 21.96 46.629 22C46.437 22.04 46.221 22.076 45.981 22.108C45.749 22.14 45.505 22.156 45.249 22.156C44.849 22.156 44.477 22.1 44.133 21.988C43.789 21.876 43.489 21.696 43.233 21.448C42.977 21.2 42.773 20.88 42.621 20.488C42.477 20.088 42.405 19.6 42.405 19.024C42.405 18.504 42.477 18.048 42.621 17.656C42.765 17.256 42.961 16.924 43.209 16.66C43.465 16.388 43.761 16.184 44.097 16.048C44.441 15.912 44.813 15.844 45.213 15.844C45.605 15.844 45.945 15.92 46.233 16.072C46.521 16.224 46.757 16.432 46.941 16.696C47.133 16.952 47.273 17.256 47.361 17.608C47.457 17.952 47.505 18.316 47.505 18.7L47.325 19.228H43.449C43.449 19.476 43.481 19.724 43.545 19.972C43.609 20.22 43.717 20.444 43.869 20.644C44.029 20.844 44.233 21.008 44.481 21.136C44.737 21.256 45.053 21.316 45.429 21.316C45.669 21.316 45.889 21.304 46.089 21.28C46.289 21.248 46.461 21.216 46.605 21.184C46.757 21.144 46.897 21.1 47.025 21.052L47.205 21.856ZM46.509 18.46C46.509 18.404 46.497 18.28 46.473 18.088C46.449 17.896 46.393 17.696 46.305 17.488C46.217 17.28 46.081 17.096 45.897 16.936C45.713 16.768 45.469 16.684 45.165 16.684C44.829 16.684 44.553 16.756 44.337 16.9C44.121 17.036 43.949 17.2 43.821 17.392C43.693 17.584 43.605 17.78 43.557 17.98C43.509 18.18 43.485 18.34 43.485 18.46H46.509ZM49.8233 17.164C49.8313 16.996 49.8113 16.632 49.7633 16.072L50.6513 15.952L50.7833 16.72C51.0233 16.56 51.2593 16.42 51.4913 16.3C51.7313 16.18 51.9753 16.076 52.2233 15.988C52.4713 15.892 52.7113 15.844 52.9433 15.844C53.2713 15.844 53.5433 15.884 53.7593 15.964C53.9833 16.036 54.1633 16.16 54.2993 16.336C54.4353 16.512 54.5313 16.744 54.5873 17.032C54.6513 17.32 54.6833 17.68 54.6833 18.112V22H53.7233V18.22C53.7233 17.98 53.7193 17.768 53.7113 17.584C53.7033 17.392 53.6673 17.232 53.6033 17.104C53.5473 16.968 53.4553 16.864 53.3273 16.792C53.2073 16.72 53.0353 16.684 52.8113 16.684C52.6033 16.684 52.3833 16.732 52.1513 16.828C51.9193 16.916 51.6913 17.02 51.4673 17.14C51.2433 17.26 51.0153 17.4 50.7833 17.56V22H49.8233V17.164ZM57.3858 17.164C57.3938 16.996 57.3738 16.632 57.3258 16.072L58.2138 15.952L58.3458 16.72C58.5858 16.56 58.8218 16.42 59.0538 16.3C59.2938 16.18 59.5378 16.076 59.7858 15.988C60.0338 15.892 60.2738 15.844 60.5058 15.844C60.8338 15.844 61.1058 15.884 61.3218 15.964C61.5458 16.036 61.7258 16.16 61.8618 16.336C61.9978 16.512 62.0938 16.744 62.1498 17.032C62.2138 17.32 62.2458 17.68 62.2458 18.112V22H61.2858V18.22C61.2858 17.98 61.2818 17.768 61.2738 17.584C61.2658 17.392 61.2298 17.232 61.1658 17.104C61.1098 16.968 61.0178 16.864 60.8898 16.792C60.7698 16.72 60.5978 16.684 60.3738 16.684C60.1658 16.684 59.9458 16.732 59.7138 16.828C59.4818 16.916 59.2538 17.02 59.0298 17.14C58.8058 17.26 58.5778 17.4 58.3458 17.56V22H57.3858V17.164ZM64.9363 15.952L65.8963 15.844V22H64.9363V15.952ZM64.7803 14.236C64.7803 14.052 64.8403 13.9 64.9603 13.78C65.0883 13.652 65.2443 13.588 65.4283 13.588C65.6203 13.588 65.7803 13.652 65.9083 13.78C66.0443 13.9 66.1123 14.052 66.1123 14.236C66.1123 14.42 66.0443 14.576 65.9083 14.704C65.7803 14.824 65.6203 14.884 65.4283 14.884C65.2443 14.884 65.0883 14.824 64.9603 14.704C64.8403 14.576 64.7803 14.42 64.7803 14.236ZM71.8839 16.948C71.5479 16.844 71.2479 16.776 70.9839 16.744C70.7279 16.704 70.4919 16.684 70.2759 16.684C69.9959 16.684 69.7599 16.752 69.5679 16.888C69.3839 17.024 69.2919 17.2 69.2919 17.416C69.2999 17.608 69.3839 17.772 69.5439 17.908C69.7039 18.044 69.8879 18.168 70.0959 18.28C70.3119 18.384 70.5479 18.5 70.8039 18.628C71.0679 18.756 71.3119 18.9 71.5359 19.06C71.7679 19.22 71.9559 19.412 72.0999 19.636C72.2439 19.86 72.3199 20.128 72.3279 20.44C72.3199 20.776 72.2439 21.056 72.0999 21.28C71.9639 21.496 71.7839 21.672 71.5599 21.808C71.3439 21.936 71.1079 22.024 70.8519 22.072C70.5959 22.128 70.3559 22.156 70.1319 22.156C69.8439 22.156 69.5439 22.14 69.2319 22.108C68.9279 22.076 68.5999 22.008 68.2479 21.904L68.4279 21.04C68.7879 21.136 69.1159 21.208 69.4119 21.256C69.7079 21.296 69.9519 21.316 70.1439 21.316C70.2879 21.316 70.4279 21.3 70.5639 21.268C70.7079 21.236 70.8359 21.192 70.9479 21.136C71.0599 21.072 71.1479 20.992 71.2119 20.896C71.2839 20.8 71.3199 20.692 71.3199 20.572C71.3119 20.348 71.2359 20.16 71.0919 20.008C70.9479 19.848 70.7599 19.708 70.5279 19.588C70.3039 19.46 70.0599 19.336 69.7959 19.216C69.5399 19.088 69.2959 18.944 69.0639 18.784C68.8399 18.616 68.6519 18.42 68.4999 18.196C68.3479 17.964 68.2719 17.68 68.2719 17.344C68.2719 17.104 68.3319 16.892 68.4519 16.708C68.5799 16.516 68.7399 16.36 68.9319 16.24C69.1319 16.112 69.3479 16.016 69.5799 15.952C69.8199 15.88 70.0519 15.844 70.2759 15.844C70.5079 15.844 70.7679 15.864 71.0559 15.904C71.3439 15.936 71.6759 16 72.0519 16.096L71.8839 16.948Z" fill="#2B2B2B"/>
</g>
<defs>
<filter id="filter0_d_1319_1407" x="-48" y="-46" width="204" height="136" filterUnits="userSpaceOnUse" color-interpolation-filters="sRGB">
<feFlood flood-opacity="0" result="BackgroundImageFix"/>
<feColorMatrix in="SourceAlpha" type="matrix" values="0 0 0 0 0 0 0 0 0 0 0 0 0 0 0 0 0 0 127 0" result="hardAlpha"/>
<feOffset dy="2"/>
<feGaussianBlur stdDeviation="24"/>
<feColorMatrix type="matrix" values="0 0 0 0 0 0 0 0 0 0 0 0 0 0 0 0 0 0 0.04 0"/>
<feBlend mode="normal" in2="BackgroundImageFix" result="effect1_dropShadow_1319_1407"/>
<feBlend mode="normal" in="SourceGraphic" in2="effect1_dropShadow_1319_1407" result="shape"/>
</filter>
<clipPath id="clip0_1319_1407">
<rect width="108" height="40" fill="white"/>
</clipPath>
</defs>
</svg>
