<svg width="140" height="46" viewBox="0 0 140 46" fill="none" xmlns="http://www.w3.org/2000/svg">
<path d="M29.7456 15.152V17.712H19.7296V38H16.8496V15.152H29.7456ZM44.3966 38H41.5486V23.184H36.4926C36.2793 25.8933 36.0126 28.208 35.6926 30.128C35.3726 32.0267 34.9673 33.5733 34.4766 34.768C33.9859 35.9627 33.3993 36.8373 32.7166 37.392C32.0339 37.9467 31.2339 38.224 30.3166 38.224C30.0393 38.224 29.7619 38.2027 29.4846 38.16C29.2286 38.1387 29.0153 38.0853 28.8446 38V35.888C28.9726 35.9307 29.1113 35.9627 29.2606 35.984C29.4099 36.0053 29.5593 36.016 29.7086 36.016C30.1779 36.016 30.6046 35.824 30.9886 35.44C31.3726 35.056 31.7139 34.4693 32.0126 33.68C32.3326 32.8907 32.6206 31.8987 32.8766 30.704C33.1326 29.488 33.3566 28.0587 33.5486 26.416C33.7406 24.7733 33.9113 22.9173 34.0606 20.848H44.3966V38ZM56.3366 20.56C58.4273 20.56 59.9739 21.0187 60.9766 21.936C61.9793 22.8533 62.4806 24.3147 62.4806 26.32V38H60.4326L59.8886 35.568H59.7606C59.2699 36.1867 58.7579 36.7093 58.2246 37.136C57.7126 37.5413 57.1153 37.84 56.4326 38.032C55.7713 38.224 54.9606 38.32 54.0006 38.32C52.9766 38.32 52.0486 38.1387 51.2166 37.776C50.4059 37.4133 49.7659 36.8587 49.2966 36.112C48.8273 35.344 48.5926 34.384 48.5926 33.232C48.5926 31.5253 49.2646 30.2133 50.6086 29.296C51.9526 28.3573 54.0219 27.8453 56.8166 27.76L59.7286 27.664V26.64C59.7286 25.2107 59.4193 24.2187 58.8006 23.664C58.1819 23.1093 57.3073 22.832 56.1766 22.832C55.2806 22.832 54.4273 22.9707 53.6166 23.248C52.8059 23.504 52.0486 23.8027 51.3446 24.144L50.4806 22.032C51.2273 21.6267 52.1126 21.2853 53.1366 21.008C54.1606 20.7093 55.2273 20.56 56.3366 20.56ZM57.1686 29.712C55.0353 29.7973 53.5526 30.1387 52.7206 30.736C51.9099 31.3333 51.5046 32.176 51.5046 33.264C51.5046 34.224 51.7926 34.928 52.3686 35.376C52.9659 35.824 53.7233 36.048 54.6406 36.048C56.0913 36.048 57.2966 35.6533 58.2566 34.864C59.2166 34.0533 59.6966 32.816 59.6966 31.152V29.616L57.1686 29.712ZM81.5701 25.168C81.5701 26.2347 81.2501 27.0667 80.6101 27.664C79.9701 28.2613 79.1488 28.6667 78.1461 28.88V29.008C79.2128 29.1573 80.1408 29.5413 80.9301 30.16C81.7194 30.7573 82.1141 31.696 82.1141 32.976C82.1141 33.7013 81.9754 34.3733 81.6981 34.992C81.4421 35.6107 81.0368 36.144 80.4821 36.592C79.9274 37.04 79.2128 37.392 78.3381 37.648C77.4634 37.8827 76.4074 38 75.1701 38H67.7781V20.848H75.1381C76.3541 20.848 77.4421 20.9867 78.4021 21.264C79.3834 21.52 80.1514 21.968 80.7061 22.608C81.2821 23.2267 81.5701 24.08 81.5701 25.168ZM79.2021 32.976C79.2021 31.9947 78.8288 31.2907 78.0821 30.864C77.3354 30.4373 76.2368 30.224 74.7861 30.224H70.5941V35.728H74.8501C76.2581 35.728 77.3354 35.5253 78.0821 35.12C78.8288 34.6933 79.2021 33.9787 79.2021 32.976ZM78.7221 25.52C78.7221 24.7093 78.4234 24.1227 77.8261 23.76C77.2501 23.376 76.3008 23.184 74.9781 23.184H70.5941V27.888H74.4661C75.8528 27.888 76.9088 27.696 77.6341 27.312C78.3594 26.928 78.7221 26.3307 78.7221 25.52ZM89.0316 20.848V27.984H98.3436V20.848H101.16V38H98.3436V30.352H89.0316V38H86.2156V20.848H89.0316ZM113.087 20.56C115.177 20.56 116.724 21.0187 117.727 21.936C118.729 22.8533 119.231 24.3147 119.231 26.32V38H117.183L116.639 35.568H116.511C116.02 36.1867 115.508 36.7093 114.975 37.136C114.463 37.5413 113.865 37.84 113.183 38.032C112.521 38.224 111.711 38.32 110.751 38.32C109.727 38.32 108.799 38.1387 107.967 37.776C107.156 37.4133 106.516 36.8587 106.047 36.112C105.577 35.344 105.343 34.384 105.343 33.232C105.343 31.5253 106.015 30.2133 107.359 29.296C108.703 28.3573 110.772 27.8453 113.567 27.76L116.479 27.664V26.64C116.479 25.2107 116.169 24.2187 115.551 23.664C114.932 23.1093 114.057 22.832 112.927 22.832C112.031 22.832 111.177 22.9707 110.367 23.248C109.556 23.504 108.799 23.8027 108.095 24.144L107.231 22.032C107.977 21.6267 108.863 21.2853 109.887 21.008C110.911 20.7093 111.977 20.56 113.087 20.56ZM113.919 29.712C111.785 29.7973 110.303 30.1387 109.471 30.736C108.66 31.3333 108.255 32.176 108.255 33.264C108.255 34.224 108.543 34.928 109.119 35.376C109.716 35.824 110.473 36.048 111.391 36.048C112.841 36.048 114.047 35.6533 115.007 34.864C115.967 34.0533 116.447 32.816 116.447 31.152V29.616L113.919 29.712ZM125.584 38H122.32L127.216 30.8C126.555 30.6293 125.915 30.3627 125.296 30C124.677 29.616 124.176 29.0933 123.792 28.432C123.408 27.7493 123.216 26.9067 123.216 25.904C123.216 24.2613 123.771 23.0133 124.88 22.16C125.989 21.2853 127.461 20.848 129.296 20.848H136.976V38H134.16V31.184H130L125.584 38ZM125.936 25.936C125.936 26.9173 126.299 27.6533 127.024 28.144C127.771 28.6133 128.805 28.848 130.128 28.848H134.16V23.184H129.584C128.283 23.184 127.344 23.44 126.768 23.952C126.213 24.464 125.936 25.1253 125.936 25.936Z" fill="#2B2B2B"/>
<path fill-rule="evenodd" clip-rule="evenodd" d="M6.02255 17.7306C4.30381 17.2659 2.50435 17.0315 0.758754 16.8167C0.382779 16.7717 0.0337127 17.023 0.0068574 17.3769C-0.0468532 17.7311 0.221857 18.0551 0.570976 18.1001C2.26286 18.3068 4.0083 18.528 5.64647 18.9754C5.99559 19.0724 6.37172 18.8727 6.47914 18.5291C6.58657 18.1857 6.37167 17.8279 6.02255 17.7306Z" fill="#2B2B2B"/>
<path fill-rule="evenodd" clip-rule="evenodd" d="M11.2326 11.1425C8.46647 8.42288 5.35125 6.05336 2.63887 3.2608C2.39717 3 1.96748 2.98602 1.69893 3.2295C1.43038 3.47323 1.40363 3.88307 1.67218 4.14387C4.38457 6.94445 7.49978 9.32173 10.2659 12.0493C10.5344 12.3039 10.964 12.3076 11.2326 12.0571C11.4743 11.8069 11.5011 11.3971 11.2326 11.1425Z" fill="#2B2B2B"/>
<path fill-rule="evenodd" clip-rule="evenodd" d="M16.4155 0.68197C16.4961 2.23854 16.5765 3.7951 16.6571 5.35192C16.6571 5.70846 16.9795 5.98376 17.3555 5.96643C17.7314 5.94883 17.9998 5.64533 17.9998 5.28853C17.9193 3.72938 17.8388 2.17049 17.7583 0.611593C17.7314 0.255052 17.4091 -0.0184333 17.0331 0.000972033C16.684 0.0203774 16.3887 0.325689 16.4155 0.68197Z" fill="#2B2B2B"/>
</svg>
