<svg width="335" height="196" viewBox="0 0 335 196" fill="none" xmlns="http://www.w3.org/2000/svg">
<rect width="335" height="196" rx="16" fill="white"/>
<path d="M43.5053 124.424V133H42.2413V127.528C42.2413 127.304 42.2466 127.069 42.2573 126.824C42.2786 126.579 42.3 126.339 42.3213 126.104H42.2733L39.4733 133H38.2893L35.5693 126.104H35.5213C35.5426 126.339 35.5533 126.579 35.5533 126.824C35.564 127.069 35.5693 127.32 35.5693 127.576V133H34.3053V124.424H36.1773L38.8813 131.32L41.6333 124.424H43.5053ZM46.2428 133V124.424H47.6508V127.944H49.8748C50.6215 127.944 51.2348 128.035 51.7148 128.216C52.1948 128.397 52.5521 128.669 52.7868 129.032C53.0215 129.384 53.1388 129.832 53.1388 130.376C53.1388 130.909 53.0215 131.373 52.7868 131.768C52.5628 132.163 52.2055 132.467 51.7148 132.68C51.2348 132.893 50.6001 133 49.8108 133H46.2428ZM49.6828 131.864C50.2908 131.864 50.7868 131.763 51.1708 131.56C51.5548 131.347 51.7468 130.979 51.7468 130.456C51.7468 129.933 51.5708 129.581 51.2188 129.4C50.8668 129.208 50.3601 129.112 49.6988 129.112H47.6508V131.864H49.6828ZM54.5628 133V124.424H55.9708V133H54.5628ZM69.8082 128.696C69.8082 129.411 69.7122 130.045 69.5202 130.6C69.3389 131.144 69.0722 131.608 68.7202 131.992C68.3789 132.376 67.9575 132.669 67.4562 132.872C66.9655 133.064 66.4162 133.16 65.8082 133.16C65.2429 133.16 64.7202 133.064 64.2402 132.872C63.7602 132.669 63.3442 132.376 62.9922 131.992C62.6402 131.608 62.3629 131.144 62.1602 130.6C61.9682 130.045 61.8722 129.411 61.8722 128.696C61.8722 127.747 62.0322 126.947 62.3522 126.296C62.6722 125.635 63.1309 125.133 63.7282 124.792C64.3255 124.44 65.0349 124.264 65.8562 124.264C66.6349 124.264 67.3175 124.44 67.9042 124.792C68.5015 125.133 68.9655 125.635 69.2962 126.296C69.6375 126.947 69.8082 127.747 69.8082 128.696ZM63.3282 128.696C63.3282 129.368 63.4135 129.955 63.5842 130.456C63.7655 130.947 64.0429 131.325 64.4162 131.592C64.7895 131.859 65.2642 131.992 65.8402 131.992C66.4162 131.992 66.8909 131.859 67.2642 131.592C67.6375 131.325 67.9095 130.947 68.0802 130.456C68.2615 129.955 68.3522 129.368 68.3522 128.696C68.3522 128.013 68.2615 127.432 68.0802 126.952C67.8989 126.472 67.6215 126.104 67.2482 125.848C66.8855 125.581 66.4109 125.448 65.8242 125.448C64.9495 125.448 64.3149 125.736 63.9202 126.312C63.5255 126.888 63.3282 127.683 63.3282 128.696ZM77.8034 125.608H75.0034V133H73.6114V125.608H70.8434V124.424H77.8034V125.608ZM86.7408 124.424V133H85.3328V125.624H80.9008V133H79.4928V124.424H86.7408ZM93.5572 124.264C94.6132 124.264 95.4612 124.632 96.1012 125.368C96.7519 126.104 97.0772 127.213 97.0772 128.696C97.0772 129.667 96.9279 130.488 96.6292 131.16C96.3412 131.821 95.9305 132.323 95.3972 132.664C94.8745 132.995 94.2559 133.16 93.5412 133.16C93.1039 133.16 92.7145 133.101 92.3732 132.984C92.0319 132.867 91.7385 132.717 91.4932 132.536C91.2585 132.344 91.0559 132.136 90.8852 131.912H90.7892C90.8105 132.093 90.8319 132.323 90.8532 132.6C90.8745 132.877 90.8852 133.117 90.8852 133.32V136.84H89.4772V124.424H90.6292L90.8212 125.592H90.8852C91.0559 125.347 91.2585 125.123 91.4932 124.92C91.7385 124.717 92.0265 124.557 92.3572 124.44C92.6985 124.323 93.0985 124.264 93.5572 124.264ZM93.3012 125.448C92.7252 125.448 92.2612 125.56 91.9092 125.784C91.5572 125.997 91.3012 126.323 91.1412 126.76C90.9812 127.197 90.8959 127.752 90.8852 128.424V128.696C90.8852 129.4 90.9599 129.997 91.1092 130.488C91.2585 130.979 91.5092 131.352 91.8612 131.608C92.2239 131.864 92.7145 131.992 93.3332 131.992C93.8559 131.992 94.2825 131.848 94.6132 131.56C94.9545 131.272 95.2052 130.883 95.3652 130.392C95.5359 129.891 95.6212 129.32 95.6212 128.68C95.6212 127.699 95.4292 126.915 95.0452 126.328C94.6719 125.741 94.0905 125.448 93.3012 125.448ZM102.569 124.28C103.614 124.28 104.388 124.509 104.889 124.968C105.39 125.427 105.641 126.157 105.641 127.16V133H104.617L104.345 131.784H104.281C104.036 132.093 103.78 132.355 103.513 132.568C103.257 132.771 102.958 132.92 102.617 133.016C102.286 133.112 101.881 133.16 101.401 133.16C100.889 133.16 100.425 133.069 100.009 132.888C99.6036 132.707 99.2836 132.429 99.0489 132.056C98.8143 131.672 98.6969 131.192 98.6969 130.616C98.6969 129.763 99.0329 129.107 99.7049 128.648C100.377 128.179 101.412 127.923 102.809 127.88L104.265 127.832V127.32C104.265 126.605 104.11 126.109 103.801 125.832C103.492 125.555 103.054 125.416 102.489 125.416C102.041 125.416 101.614 125.485 101.209 125.624C100.804 125.752 100.425 125.901 100.073 126.072L99.6409 125.016C100.014 124.813 100.457 124.643 100.969 124.504C101.481 124.355 102.014 124.28 102.569 124.28ZM102.985 128.856C101.918 128.899 101.177 129.069 100.761 129.368C100.356 129.667 100.153 130.088 100.153 130.632C100.153 131.112 100.297 131.464 100.585 131.688C100.884 131.912 101.262 132.024 101.721 132.024C102.446 132.024 103.049 131.827 103.529 131.432C104.009 131.027 104.249 130.408 104.249 129.576V128.808L102.985 128.856ZM115.186 126.584C115.186 127.117 115.026 127.533 114.706 127.832C114.386 128.131 113.975 128.333 113.474 128.44V128.504C114.007 128.579 114.471 128.771 114.866 129.08C115.26 129.379 115.458 129.848 115.458 130.488C115.458 130.851 115.388 131.187 115.25 131.496C115.122 131.805 114.919 132.072 114.642 132.296C114.364 132.52 114.007 132.696 113.57 132.824C113.132 132.941 112.604 133 111.986 133H108.29V124.424H111.97C112.578 124.424 113.122 124.493 113.602 124.632C114.092 124.76 114.476 124.984 114.754 125.304C115.042 125.613 115.186 126.04 115.186 126.584ZM114.002 130.488C114.002 129.997 113.815 129.645 113.442 129.432C113.068 129.219 112.519 129.112 111.794 129.112H109.698V131.864H111.826C112.53 131.864 113.068 131.763 113.442 131.56C113.815 131.347 114.002 130.989 114.002 130.488ZM113.762 126.76C113.762 126.355 113.612 126.061 113.314 125.88C113.026 125.688 112.551 125.592 111.89 125.592H109.698V127.944H111.634C112.327 127.944 112.855 127.848 113.218 127.656C113.58 127.464 113.762 127.165 113.762 126.76ZM118.836 129.656C118.836 129.752 118.831 129.891 118.82 130.072C118.82 130.243 118.815 130.429 118.804 130.632C118.794 130.824 118.783 131.011 118.772 131.192C118.762 131.363 118.751 131.501 118.74 131.608L123.332 124.424H125.06V133H123.748V127.944C123.748 127.773 123.748 127.549 123.748 127.272C123.759 126.995 123.77 126.723 123.78 126.456C123.791 126.179 123.802 125.971 123.812 125.832L119.252 133H117.508V124.424H118.836V129.656ZM134.318 133H132.894V125.592H130.366C130.259 126.947 130.126 128.104 129.966 129.064C129.806 130.013 129.603 130.787 129.358 131.384C129.112 131.981 128.819 132.419 128.478 132.696C128.136 132.973 127.736 133.112 127.278 133.112C127.139 133.112 127 133.101 126.862 133.08C126.734 133.069 126.627 133.043 126.542 133V131.944C126.606 131.965 126.675 131.981 126.75 131.992C126.824 132.003 126.899 132.008 126.974 132.008C127.208 132.008 127.422 131.912 127.614 131.72C127.806 131.528 127.976 131.235 128.126 130.84C128.286 130.445 128.43 129.949 128.558 129.352C128.686 128.744 128.798 128.029 128.894 127.208C128.99 126.387 129.075 125.459 129.15 124.424H134.318V133ZM138.368 129.656C138.368 129.752 138.362 129.891 138.352 130.072C138.352 130.243 138.346 130.429 138.336 130.632C138.325 130.824 138.314 131.011 138.304 131.192C138.293 131.363 138.282 131.501 138.272 131.608L142.864 124.424H144.592V133H143.28V127.944C143.28 127.773 143.28 127.549 143.28 127.272C143.29 126.995 143.301 126.723 143.312 126.456C143.322 126.179 143.333 125.971 143.344 125.832L138.784 133H137.04V124.424H138.368V129.656ZM156.049 124.424H157.585L153.921 128.552L157.889 133H156.257L152.385 128.648V133H150.977V124.424H152.385V128.584L156.049 124.424ZM166.589 128.696C166.589 129.411 166.493 130.045 166.301 130.6C166.12 131.144 165.853 131.608 165.501 131.992C165.16 132.376 164.739 132.669 164.237 132.872C163.747 133.064 163.197 133.16 162.589 133.16C162.024 133.16 161.501 133.064 161.021 132.872C160.541 132.669 160.125 132.376 159.773 131.992C159.421 131.608 159.144 131.144 158.941 130.6C158.749 130.045 158.653 129.411 158.653 128.696C158.653 127.747 158.813 126.947 159.133 126.296C159.453 125.635 159.912 125.133 160.509 124.792C161.107 124.44 161.816 124.264 162.637 124.264C163.416 124.264 164.099 124.44 164.685 124.792C165.283 125.133 165.747 125.635 166.077 126.296C166.419 126.947 166.589 127.747 166.589 128.696ZM160.109 128.696C160.109 129.368 160.195 129.955 160.365 130.456C160.547 130.947 160.824 131.325 161.197 131.592C161.571 131.859 162.045 131.992 162.621 131.992C163.197 131.992 163.672 131.859 164.045 131.592C164.419 131.325 164.691 130.947 164.861 130.456C165.043 129.955 165.133 129.368 165.133 128.696C165.133 128.013 165.043 127.432 164.861 126.952C164.68 126.472 164.403 126.104 164.029 125.848C163.667 125.581 163.192 125.448 162.605 125.448C161.731 125.448 161.096 125.736 160.701 126.312C160.307 126.888 160.109 127.683 160.109 128.696ZM175.189 124.424V131.816H176.437V135.976H175.077V133H169.109V135.976H167.765V131.816H168.453C168.944 131.133 169.349 130.392 169.669 129.592C170 128.781 170.245 127.939 170.405 127.064C170.576 126.179 170.666 125.299 170.677 124.424H175.189ZM171.925 125.528C171.882 126.253 171.77 127.005 171.589 127.784C171.408 128.552 171.173 129.288 170.885 129.992C170.608 130.696 170.282 131.304 169.909 131.816H173.829V125.528H171.925ZM188.67 126.584C188.67 127.117 188.51 127.533 188.19 127.832C187.87 128.131 187.459 128.333 186.958 128.44V128.504C187.491 128.579 187.955 128.771 188.35 129.08C188.745 129.379 188.942 129.848 188.942 130.488C188.942 130.851 188.873 131.187 188.734 131.496C188.606 131.805 188.403 132.072 188.126 132.296C187.849 132.52 187.491 132.696 187.054 132.824C186.617 132.941 186.089 133 185.47 133H181.774V124.424H185.454C186.062 124.424 186.606 124.493 187.086 124.632C187.577 124.76 187.961 124.984 188.238 125.304C188.526 125.613 188.67 126.04 188.67 126.584ZM187.486 130.488C187.486 129.997 187.299 129.645 186.926 129.432C186.553 129.219 186.003 129.112 185.278 129.112H183.182V131.864H185.31C186.014 131.864 186.553 131.763 186.926 131.56C187.299 131.347 187.486 130.989 187.486 130.488ZM187.246 126.76C187.246 126.355 187.097 126.061 186.798 125.88C186.51 125.688 186.035 125.592 185.374 125.592H183.182V127.944H185.118C185.811 127.944 186.339 127.848 186.702 127.656C187.065 127.464 187.246 127.165 187.246 126.76ZM198.449 128.696C198.449 129.411 198.353 130.045 198.161 130.6C197.979 131.144 197.713 131.608 197.361 131.992C197.019 132.376 196.598 132.669 196.097 132.872C195.606 133.064 195.057 133.16 194.449 133.16C193.883 133.16 193.361 133.064 192.881 132.872C192.401 132.669 191.985 132.376 191.633 131.992C191.281 131.608 191.003 131.144 190.801 130.6C190.609 130.045 190.513 129.411 190.513 128.696C190.513 127.747 190.673 126.947 190.993 126.296C191.313 125.635 191.771 125.133 192.369 124.792C192.966 124.44 193.675 124.264 194.497 124.264C195.275 124.264 195.958 124.44 196.545 124.792C197.142 125.133 197.606 125.635 197.937 126.296C198.278 126.947 198.449 127.747 198.449 128.696ZM191.969 128.696C191.969 129.368 192.054 129.955 192.225 130.456C192.406 130.947 192.683 131.325 193.057 131.592C193.43 131.859 193.905 131.992 194.481 131.992C195.057 131.992 195.531 131.859 195.905 131.592C196.278 131.325 196.55 130.947 196.721 130.456C196.902 129.955 196.993 129.368 196.993 128.696C196.993 128.013 196.902 127.432 196.721 126.952C196.539 126.472 196.262 126.104 195.889 125.848C195.526 125.581 195.051 125.448 194.465 125.448C193.59 125.448 192.955 125.736 192.561 126.312C192.166 126.888 191.969 127.683 191.969 128.696ZM204.12 133.16C203.363 133.16 202.686 133.005 202.088 132.696C201.502 132.387 201.038 131.907 200.696 131.256C200.366 130.605 200.2 129.773 200.2 128.76C200.2 127.704 200.376 126.845 200.728 126.184C201.08 125.523 201.555 125.037 202.152 124.728C202.76 124.419 203.448 124.264 204.216 124.264C204.654 124.264 205.075 124.312 205.48 124.408C205.886 124.493 206.216 124.6 206.472 124.728L206.04 125.896C205.784 125.8 205.486 125.709 205.144 125.624C204.803 125.539 204.483 125.496 204.184 125.496C203.608 125.496 203.134 125.619 202.76 125.864C202.387 126.109 202.11 126.472 201.928 126.952C201.747 127.432 201.656 128.029 201.656 128.744C201.656 129.427 201.747 130.008 201.928 130.488C202.11 130.968 202.382 131.331 202.744 131.576C203.107 131.821 203.56 131.944 204.104 131.944C204.574 131.944 204.984 131.896 205.336 131.8C205.699 131.704 206.03 131.587 206.328 131.448V132.696C206.04 132.845 205.72 132.957 205.368 133.032C205.027 133.117 204.611 133.16 204.12 133.16ZM211.808 133.16C211.05 133.16 210.373 133.005 209.776 132.696C209.189 132.387 208.725 131.907 208.384 131.256C208.053 130.605 207.888 129.773 207.888 128.76C207.888 127.704 208.064 126.845 208.416 126.184C208.768 125.523 209.242 125.037 209.84 124.728C210.448 124.419 211.136 124.264 211.904 124.264C212.341 124.264 212.762 124.312 213.168 124.408C213.573 124.493 213.904 124.6 214.16 124.728L213.728 125.896C213.472 125.8 213.173 125.709 212.832 125.624C212.49 125.539 212.17 125.496 211.872 125.496C211.296 125.496 210.821 125.619 210.448 125.864C210.074 126.109 209.797 126.472 209.616 126.952C209.434 127.432 209.344 128.029 209.344 128.744C209.344 129.427 209.434 130.008 209.616 130.488C209.797 130.968 210.069 131.331 210.432 131.576C210.794 131.821 211.248 131.944 211.792 131.944C212.261 131.944 212.672 131.896 213.024 131.8C213.386 131.704 213.717 131.587 214.016 131.448V132.696C213.728 132.845 213.408 132.957 213.056 133.032C212.714 133.117 212.298 133.16 211.808 133.16ZM221.975 125.608H219.175V133H217.783V125.608H215.015V124.424H221.975V125.608ZM226.913 124.28C227.958 124.28 228.731 124.509 229.233 124.968C229.734 125.427 229.985 126.157 229.985 127.16V133H228.961L228.689 131.784H228.625C228.379 132.093 228.123 132.355 227.857 132.568C227.601 132.771 227.302 132.92 226.961 133.016C226.63 133.112 226.225 133.16 225.745 133.16C225.233 133.16 224.769 133.069 224.353 132.888C223.947 132.707 223.627 132.429 223.393 132.056C223.158 131.672 223.041 131.192 223.041 130.616C223.041 129.763 223.377 129.107 224.049 128.648C224.721 128.179 225.755 127.923 227.153 127.88L228.609 127.832V127.32C228.609 126.605 228.454 126.109 228.145 125.832C227.835 125.555 227.398 125.416 226.833 125.416C226.385 125.416 225.958 125.485 225.553 125.624C225.147 125.752 224.769 125.901 224.417 126.072L223.985 125.016C224.358 124.813 224.801 124.643 225.313 124.504C225.825 124.355 226.358 124.28 226.913 124.28ZM227.329 128.856C226.262 128.899 225.521 129.069 225.105 129.368C224.699 129.667 224.497 130.088 224.497 130.632C224.497 131.112 224.641 131.464 224.929 131.688C225.227 131.912 225.606 132.024 226.065 132.024C226.79 132.024 227.393 131.827 227.873 131.432C228.353 131.027 228.593 130.408 228.593 129.576V128.808L227.329 128.856ZM234.041 124.424V127.992H238.697V124.424H240.105V133H238.697V129.176H234.041V133H232.633V124.424H234.041ZM250.277 128.696C250.277 129.411 250.181 130.045 249.989 130.6C249.808 131.144 249.541 131.608 249.189 131.992C248.848 132.376 248.426 132.669 247.925 132.872C247.434 133.064 246.885 133.16 246.277 133.16C245.712 133.16 245.189 133.064 244.709 132.872C244.229 132.669 243.813 132.376 243.461 131.992C243.109 131.608 242.832 131.144 242.629 130.6C242.437 130.045 242.341 129.411 242.341 128.696C242.341 127.747 242.501 126.947 242.821 126.296C243.141 125.635 243.6 125.133 244.197 124.792C244.794 124.44 245.504 124.264 246.325 124.264C247.104 124.264 247.786 124.44 248.373 124.792C248.97 125.133 249.434 125.635 249.765 126.296C250.106 126.947 250.277 127.747 250.277 128.696ZM243.797 128.696C243.797 129.368 243.882 129.955 244.053 130.456C244.234 130.947 244.512 131.325 244.885 131.592C245.258 131.859 245.733 131.992 246.309 131.992C246.885 131.992 247.36 131.859 247.733 131.592C248.106 131.325 248.378 130.947 248.549 130.456C248.73 129.955 248.821 129.368 248.821 128.696C248.821 128.013 248.73 127.432 248.549 126.952C248.368 126.472 248.09 126.104 247.717 125.848C247.354 125.581 246.88 125.448 246.293 125.448C245.418 125.448 244.784 125.736 244.389 126.312C243.994 126.888 243.797 127.683 243.797 128.696ZM259.404 126.584C259.404 127.117 259.244 127.533 258.924 127.832C258.604 128.131 258.194 128.333 257.692 128.44V128.504C258.226 128.579 258.69 128.771 259.084 129.08C259.479 129.379 259.676 129.848 259.676 130.488C259.676 130.851 259.607 131.187 259.468 131.496C259.34 131.805 259.138 132.072 258.86 132.296C258.583 132.52 258.226 132.696 257.788 132.824C257.351 132.941 256.823 133 256.204 133H252.508V124.424H256.188C256.796 124.424 257.34 124.493 257.82 124.632C258.311 124.76 258.695 124.984 258.972 125.304C259.26 125.613 259.404 126.04 259.404 126.584ZM258.22 130.488C258.22 129.997 258.034 129.645 257.66 129.432C257.287 129.219 256.738 129.112 256.012 129.112H253.916V131.864H256.044C256.748 131.864 257.287 131.763 257.66 131.56C258.034 131.347 258.22 130.989 258.22 130.488ZM257.98 126.76C257.98 126.355 257.831 126.061 257.532 125.88C257.244 125.688 256.77 125.592 256.108 125.592H253.916V127.944H255.852C256.546 127.944 257.074 127.848 257.436 127.656C257.799 127.464 257.98 127.165 257.98 126.76ZM268.255 133H266.831V125.592H264.303C264.197 126.947 264.063 128.104 263.903 129.064C263.743 130.013 263.541 130.787 263.295 131.384C263.05 131.981 262.757 132.419 262.415 132.696C262.074 132.973 261.674 133.112 261.215 133.112C261.077 133.112 260.938 133.101 260.799 133.08C260.671 133.069 260.565 133.043 260.479 133V131.944C260.543 131.965 260.613 131.981 260.687 131.992C260.762 132.003 260.837 132.008 260.911 132.008C261.146 132.008 261.359 131.912 261.551 131.72C261.743 131.528 261.914 131.235 262.063 130.84C262.223 130.445 262.367 129.949 262.495 129.352C262.623 128.744 262.735 128.029 262.831 127.208C262.927 126.387 263.013 125.459 263.087 124.424H268.255V133ZM274.289 124.264C275.025 124.264 275.655 124.424 276.177 124.744C276.711 125.064 277.116 125.517 277.393 126.104C277.681 126.68 277.825 127.357 277.825 128.136V128.984H271.953C271.975 129.955 272.22 130.696 272.689 131.208C273.169 131.709 273.836 131.96 274.689 131.96C275.233 131.96 275.713 131.912 276.129 131.816C276.556 131.709 276.993 131.56 277.441 131.368V132.6C277.004 132.792 276.572 132.931 276.145 133.016C275.719 133.112 275.212 133.16 274.625 133.16C273.815 133.16 273.095 132.995 272.465 132.664C271.847 132.333 271.361 131.843 271.009 131.192C270.668 130.531 270.497 129.725 270.497 128.776C270.497 127.837 270.652 127.032 270.961 126.36C271.281 125.688 271.724 125.171 272.289 124.808C272.865 124.445 273.532 124.264 274.289 124.264ZM274.273 125.416C273.601 125.416 273.068 125.635 272.673 126.072C272.289 126.499 272.06 127.096 271.985 127.864H276.353C276.353 127.373 276.279 126.947 276.129 126.584C275.98 126.221 275.751 125.939 275.441 125.736C275.143 125.523 274.753 125.416 274.273 125.416ZM281.416 124.424V127.992H286.072V124.424H287.48V133H286.072V129.176H281.416V133H280.008V124.424H281.416ZM291.524 129.656C291.524 129.752 291.519 129.891 291.508 130.072C291.508 130.243 291.503 130.429 291.492 130.632C291.481 130.824 291.471 131.011 291.46 131.192C291.449 131.363 291.439 131.501 291.428 131.608L296.02 124.424H297.748V133H296.436V127.944C296.436 127.773 296.436 127.549 296.436 127.272C296.447 126.995 296.457 126.723 296.468 126.456C296.479 126.179 296.489 125.971 296.5 125.832L291.94 133H290.196V124.424H291.524V129.656ZM301.005 133H299.373L301.821 129.4C301.491 129.315 301.171 129.181 300.861 129C300.552 128.808 300.301 128.547 300.109 128.216C299.917 127.875 299.821 127.453 299.821 126.952C299.821 126.131 300.099 125.507 300.653 125.08C301.208 124.643 301.944 124.424 302.861 124.424H306.701V133H305.293V129.592H303.213L301.005 133ZM301.181 126.968C301.181 127.459 301.363 127.827 301.725 128.072C302.099 128.307 302.616 128.424 303.277 128.424H305.293V125.592H303.005C302.355 125.592 301.885 125.72 301.597 125.976C301.32 126.232 301.181 126.563 301.181 126.968ZM37.3502 144.424V153H35.9422V145.624H31.5102V153H30.1022V144.424H37.3502ZM43.3346 144.28C44.3799 144.28 45.1532 144.509 45.6546 144.968C46.1559 145.427 46.4066 146.157 46.4066 147.16V153H45.3826L45.1106 151.784H45.0466C44.8012 152.093 44.5452 152.355 44.2786 152.568C44.0226 152.771 43.7239 152.92 43.3826 153.016C43.0519 153.112 42.6466 153.16 42.1666 153.16C41.6546 153.16 41.1906 153.069 40.7746 152.888C40.3692 152.707 40.0492 152.429 39.8146 152.056C39.5799 151.672 39.4626 151.192 39.4626 150.616C39.4626 149.763 39.7986 149.107 40.4706 148.648C41.1426 148.179 42.1772 147.923 43.5746 147.88L45.0306 147.832V147.32C45.0306 146.605 44.8759 146.109 44.5666 145.832C44.2572 145.555 43.8199 145.416 43.2546 145.416C42.8066 145.416 42.3799 145.485 41.9746 145.624C41.5692 145.752 41.1906 145.901 40.8386 146.072L40.4066 145.016C40.7799 144.813 41.2226 144.643 41.7346 144.504C42.2466 144.355 42.7799 144.28 43.3346 144.28ZM43.7506 148.856C42.6839 148.899 41.9426 149.069 41.5266 149.368C41.1212 149.667 40.9186 150.088 40.9186 150.632C40.9186 151.112 41.0626 151.464 41.3506 151.688C41.6492 151.912 42.0279 152.024 42.4866 152.024C43.2119 152.024 43.8146 151.827 44.2946 151.432C44.7746 151.027 45.0146 150.408 45.0146 149.576V148.808L43.7506 148.856ZM53.1353 144.264C54.1913 144.264 55.0393 144.632 55.6793 145.368C56.33 146.104 56.6553 147.213 56.6553 148.696C56.6553 149.667 56.506 150.488 56.2073 151.16C55.9193 151.821 55.5086 152.323 54.9753 152.664C54.4526 152.995 53.834 153.16 53.1193 153.16C52.682 153.16 52.2926 153.101 51.9513 152.984C51.61 152.867 51.3166 152.717 51.0713 152.536C50.8366 152.344 50.634 152.136 50.4633 151.912H50.3673C50.3886 152.093 50.41 152.323 50.4313 152.6C50.4526 152.877 50.4633 153.117 50.4633 153.32V156.84H49.0553V144.424H50.2073L50.3993 145.592H50.4633C50.634 145.347 50.8366 145.123 51.0713 144.92C51.3166 144.717 51.6046 144.557 51.9353 144.44C52.2766 144.323 52.6766 144.264 53.1353 144.264ZM52.8793 145.448C52.3033 145.448 51.8393 145.56 51.4873 145.784C51.1353 145.997 50.8793 146.323 50.7193 146.76C50.5593 147.197 50.474 147.752 50.4633 148.424V148.696C50.4633 149.4 50.538 149.997 50.6873 150.488C50.8366 150.979 51.0873 151.352 51.4393 151.608C51.802 151.864 52.2926 151.992 52.9113 151.992C53.434 151.992 53.8606 151.848 54.1913 151.56C54.5326 151.272 54.7833 150.883 54.9433 150.392C55.114 149.891 55.1993 149.32 55.1993 148.68C55.1993 147.699 55.0073 146.915 54.6233 146.328C54.25 145.741 53.6686 145.448 52.8793 145.448ZM66.3551 148.696C66.3551 149.411 66.2591 150.045 66.0671 150.6C65.8857 151.144 65.6191 151.608 65.2671 151.992C64.9257 152.376 64.5044 152.669 64.0031 152.872C63.5124 153.064 62.9631 153.16 62.3551 153.16C61.7897 153.16 61.2671 153.064 60.7871 152.872C60.3071 152.669 59.8911 152.376 59.5391 151.992C59.1871 151.608 58.9097 151.144 58.7071 150.6C58.5151 150.045 58.4191 149.411 58.4191 148.696C58.4191 147.747 58.5791 146.947 58.8991 146.296C59.2191 145.635 59.6777 145.133 60.2751 144.792C60.8724 144.44 61.5817 144.264 62.4031 144.264C63.1817 144.264 63.8644 144.44 64.4511 144.792C65.0484 145.133 65.5124 145.635 65.8431 146.296C66.1844 146.947 66.3551 147.747 66.3551 148.696ZM59.8751 148.696C59.8751 149.368 59.9604 149.955 60.1311 150.456C60.3124 150.947 60.5897 151.325 60.9631 151.592C61.3364 151.859 61.8111 151.992 62.3871 151.992C62.9631 151.992 63.4377 151.859 63.8111 151.592C64.1844 151.325 64.4564 150.947 64.6271 150.456C64.8084 149.955 64.8991 149.368 64.8991 148.696C64.8991 148.013 64.8084 147.432 64.6271 146.952C64.4457 146.472 64.1684 146.104 63.7951 145.848C63.4324 145.581 62.9577 145.448 62.3711 145.448C61.4964 145.448 60.8617 145.736 60.4671 146.312C60.0724 146.888 59.8751 147.683 59.8751 148.696ZM75.1146 153H73.6906V145.592H71.1626C71.0559 146.947 70.9226 148.104 70.7626 149.064C70.6026 150.013 70.3999 150.787 70.1546 151.384C69.9092 151.981 69.6159 152.419 69.2746 152.696C68.9332 152.973 68.5332 153.112 68.0746 153.112C67.9359 153.112 67.7972 153.101 67.6586 153.08C67.5306 153.069 67.4239 153.043 67.3386 153V151.944C67.4026 151.965 67.4719 151.981 67.5466 151.992C67.6212 152.003 67.6959 152.008 67.7706 152.008C68.0052 152.008 68.2186 151.912 68.4106 151.72C68.6026 151.528 68.7732 151.235 68.9226 150.84C69.0826 150.445 69.2266 149.949 69.3546 149.352C69.4826 148.744 69.5946 148.029 69.6906 147.208C69.7866 146.387 69.8719 145.459 69.9466 144.424H75.1146V153ZM78.3646 153H76.7326L79.1806 149.4C78.8499 149.315 78.5299 149.181 78.2206 149C77.9112 148.808 77.6606 148.547 77.4686 148.216C77.2766 147.875 77.1806 147.453 77.1806 146.952C77.1806 146.131 77.4579 145.507 78.0126 145.08C78.5672 144.643 79.3032 144.424 80.2206 144.424H84.0606V153H82.6526V149.592H80.5726L78.3646 153ZM78.5406 146.968C78.5406 147.459 78.7219 147.827 79.0846 148.072C79.4579 148.307 79.9752 148.424 80.6366 148.424H82.6526V145.592H80.3646C79.7139 145.592 79.2446 145.72 78.9566 145.976C78.6792 146.232 78.5406 146.563 78.5406 146.968ZM91.8383 144.424V147.992H96.4943V144.424H97.9023V153H96.4943V149.176H91.8383V153H90.4303V144.424H91.8383ZM103.866 144.28C104.911 144.28 105.684 144.509 106.186 144.968C106.687 145.427 106.938 146.157 106.938 147.16V153H105.914L105.642 151.784H105.578C105.332 152.093 105.076 152.355 104.81 152.568C104.554 152.771 104.255 152.92 103.914 153.016C103.583 153.112 103.178 153.16 102.698 153.16C102.186 153.16 101.722 153.069 101.306 152.888C100.9 152.707 100.58 152.429 100.346 152.056C100.111 151.672 99.9938 151.192 99.9938 150.616C99.9938 149.763 100.33 149.107 101.002 148.648C101.674 148.179 102.708 147.923 104.106 147.88L105.562 147.832V147.32C105.562 146.605 105.407 146.109 105.098 145.832C104.788 145.555 104.351 145.416 103.786 145.416C103.338 145.416 102.911 145.485 102.506 145.624C102.1 145.752 101.722 145.901 101.37 146.072L100.938 145.016C101.311 144.813 101.754 144.643 102.266 144.504C102.778 144.355 103.311 144.28 103.866 144.28ZM104.282 148.856C103.215 148.899 102.474 149.069 102.058 149.368C101.652 149.667 101.45 150.088 101.45 150.632C101.45 151.112 101.594 151.464 101.882 151.688C102.18 151.912 102.559 152.024 103.018 152.024C103.743 152.024 104.346 151.827 104.826 151.432C105.306 151.027 105.546 150.408 105.546 149.576V148.808L104.282 148.856ZM120.139 146.584C120.139 147.117 119.979 147.533 119.659 147.832C119.339 148.131 118.928 148.333 118.427 148.44V148.504C118.96 148.579 119.424 148.771 119.819 149.08C120.213 149.379 120.411 149.848 120.411 150.488C120.411 150.851 120.341 151.187 120.203 151.496C120.075 151.805 119.872 152.072 119.595 152.296C119.317 152.52 118.96 152.696 118.523 152.824C118.085 152.941 117.557 153 116.939 153H113.243V144.424H116.923C117.531 144.424 118.075 144.493 118.555 144.632C119.045 144.76 119.429 144.984 119.707 145.304C119.995 145.613 120.139 146.04 120.139 146.584ZM118.955 150.488C118.955 149.997 118.768 149.645 118.395 149.432C118.021 149.219 117.472 149.112 116.747 149.112H114.651V151.864H116.779C117.483 151.864 118.021 151.763 118.395 151.56C118.768 151.347 118.955 150.989 118.955 150.488ZM118.715 146.76C118.715 146.355 118.565 146.061 118.267 145.88C117.979 145.688 117.504 145.592 116.843 145.592H114.651V147.944H116.587C117.28 147.944 117.808 147.848 118.171 147.656C118.533 147.464 118.715 147.165 118.715 146.76ZM125.71 144.28C126.755 144.28 127.528 144.509 128.03 144.968C128.531 145.427 128.782 146.157 128.782 147.16V153H127.758L127.486 151.784H127.422C127.176 152.093 126.92 152.355 126.654 152.568C126.398 152.771 126.099 152.92 125.758 153.016C125.427 153.112 125.022 153.16 124.542 153.16C124.03 153.16 123.566 153.069 123.15 152.888C122.744 152.707 122.424 152.429 122.19 152.056C121.955 151.672 121.838 151.192 121.838 150.616C121.838 149.763 122.174 149.107 122.846 148.648C123.518 148.179 124.552 147.923 125.95 147.88L127.406 147.832V147.32C127.406 146.605 127.251 146.109 126.942 145.832C126.632 145.555 126.195 145.416 125.63 145.416C125.182 145.416 124.755 145.485 124.35 145.624C123.944 145.752 123.566 145.901 123.214 146.072L122.782 145.016C123.155 144.813 123.598 144.643 124.11 144.504C124.622 144.355 125.155 144.28 125.71 144.28ZM126.126 148.856C125.059 148.899 124.318 149.069 123.902 149.368C123.496 149.667 123.294 150.088 123.294 150.632C123.294 151.112 123.438 151.464 123.726 151.688C124.024 151.912 124.403 152.024 124.862 152.024C125.587 152.024 126.19 151.827 126.67 151.432C127.15 151.027 127.39 150.408 127.39 149.576V148.808L126.126 148.856ZM143.062 144.424V153H131.43V144.424H132.838V151.816H136.534V144.424H137.942V151.816H141.654V144.424H143.062ZM144.461 144.424H145.965L147.821 149.304C147.928 149.592 148.024 149.869 148.109 150.136C148.205 150.403 148.291 150.664 148.365 150.92C148.44 151.165 148.499 151.405 148.541 151.64H148.605C148.669 151.373 148.771 151.027 148.909 150.6C149.048 150.163 149.192 149.725 149.341 149.288L151.085 144.424H152.605L148.909 154.184C148.707 154.717 148.467 155.181 148.189 155.576C147.923 155.981 147.592 156.291 147.197 156.504C146.813 156.728 146.344 156.84 145.789 156.84C145.533 156.84 145.309 156.824 145.117 156.792C144.925 156.771 144.76 156.744 144.621 156.712V155.592C144.739 155.613 144.877 155.635 145.037 155.656C145.208 155.677 145.384 155.688 145.565 155.688C145.896 155.688 146.179 155.624 146.413 155.496C146.659 155.379 146.867 155.203 147.037 154.968C147.208 154.744 147.352 154.477 147.469 154.168L147.917 153.032L144.461 144.424ZM158.994 153.16C158.503 153.16 158.076 153.117 157.714 153.032C157.362 152.957 157.031 152.845 156.722 152.696V151.48C157.042 151.608 157.388 151.72 157.762 151.816C158.135 151.912 158.556 151.96 159.026 151.96C159.58 151.96 160.06 151.864 160.466 151.672C160.871 151.469 161.191 151.16 161.426 150.744C161.66 150.328 161.794 149.8 161.826 149.16H157.602V148.008H161.81C161.735 147.133 161.484 146.493 161.058 146.088C160.642 145.683 160.028 145.48 159.218 145.48C158.908 145.48 158.567 145.523 158.194 145.608C157.831 145.693 157.506 145.789 157.218 145.896L156.818 144.76C157.127 144.621 157.495 144.504 157.922 144.408C158.348 144.312 158.775 144.264 159.202 144.264C160.002 144.264 160.706 144.413 161.314 144.712C161.932 145.011 162.412 145.485 162.754 146.136C163.106 146.787 163.282 147.645 163.282 148.712C163.282 149.725 163.095 150.563 162.722 151.224C162.359 151.885 161.852 152.376 161.202 152.696C160.562 153.005 159.826 153.16 158.994 153.16ZM172.052 153H170.628V145.592H168.1C167.993 146.947 167.86 148.104 167.7 149.064C167.54 150.013 167.337 150.787 167.092 151.384C166.847 151.981 166.553 152.419 166.212 152.696C165.871 152.973 165.471 153.112 165.012 153.112C164.873 153.112 164.735 153.101 164.596 153.08C164.468 153.069 164.361 153.043 164.276 153V151.944C164.34 151.965 164.409 151.981 164.484 151.992C164.559 152.003 164.633 152.008 164.708 152.008C164.943 152.008 165.156 151.912 165.348 151.72C165.54 151.528 165.711 151.235 165.86 150.84C166.02 150.445 166.164 149.949 166.292 149.352C166.42 148.744 166.532 148.029 166.628 147.208C166.724 146.387 166.809 145.459 166.884 144.424H172.052V153ZM178.086 144.264C178.822 144.264 179.451 144.424 179.974 144.744C180.507 145.064 180.913 145.517 181.19 146.104C181.478 146.68 181.622 147.357 181.622 148.136V148.984H175.75C175.771 149.955 176.017 150.696 176.486 151.208C176.966 151.709 177.633 151.96 178.486 151.96C179.03 151.96 179.51 151.912 179.926 151.816C180.353 151.709 180.79 151.56 181.238 151.368V152.6C180.801 152.792 180.369 152.931 179.942 153.016C179.515 153.112 179.009 153.16 178.422 153.16C177.611 153.16 176.891 152.995 176.262 152.664C175.643 152.333 175.158 151.843 174.806 151.192C174.465 150.531 174.294 149.725 174.294 148.776C174.294 147.837 174.449 147.032 174.758 146.36C175.078 145.688 175.521 145.171 176.086 144.808C176.662 144.445 177.329 144.264 178.086 144.264ZM178.07 145.416C177.398 145.416 176.865 145.635 176.47 146.072C176.086 146.499 175.857 147.096 175.782 147.864H180.15C180.15 147.373 180.075 146.947 179.926 146.584C179.777 146.221 179.547 145.939 179.238 145.736C178.939 145.523 178.55 145.416 178.07 145.416ZM188.877 144.424H190.413L186.749 148.552L190.717 153H189.085L185.213 148.648V153H183.805V144.424H185.213V148.584L188.877 144.424ZM198.194 145.608H195.394V153H194.002V145.608H191.234V144.424H198.194V145.608ZM203.963 144.264C205.019 144.264 205.867 144.632 206.507 145.368C207.158 146.104 207.483 147.213 207.483 148.696C207.483 149.667 207.334 150.488 207.035 151.16C206.747 151.821 206.337 152.323 205.803 152.664C205.281 152.995 204.662 153.16 203.947 153.16C203.51 153.16 203.121 153.101 202.779 152.984C202.438 152.867 202.145 152.717 201.899 152.536C201.665 152.344 201.462 152.136 201.291 151.912H201.195C201.217 152.093 201.238 152.323 201.259 152.6C201.281 152.877 201.291 153.117 201.291 153.32V156.84H199.883V144.424H201.035L201.227 145.592H201.291C201.462 145.347 201.665 145.123 201.899 144.92C202.145 144.717 202.433 144.557 202.763 144.44C203.105 144.323 203.505 144.264 203.963 144.264ZM203.707 145.448C203.131 145.448 202.667 145.56 202.315 145.784C201.963 145.997 201.707 146.323 201.547 146.76C201.387 147.197 201.302 147.752 201.291 148.424V148.696C201.291 149.4 201.366 149.997 201.515 150.488C201.665 150.979 201.915 151.352 202.267 151.608C202.63 151.864 203.121 151.992 203.739 151.992C204.262 151.992 204.689 151.848 205.019 151.56C205.361 151.272 205.611 150.883 205.771 150.392C205.942 149.891 206.027 149.32 206.027 148.68C206.027 147.699 205.835 146.915 205.451 146.328C205.078 145.741 204.497 145.448 203.707 145.448ZM217.183 148.696C217.183 149.411 217.087 150.045 216.895 150.6C216.714 151.144 216.447 151.608 216.095 151.992C215.754 152.376 215.333 152.669 214.831 152.872C214.341 153.064 213.791 153.16 213.183 153.16C212.618 153.16 212.095 153.064 211.615 152.872C211.135 152.669 210.719 152.376 210.367 151.992C210.015 151.608 209.738 151.144 209.535 150.6C209.343 150.045 209.247 149.411 209.247 148.696C209.247 147.747 209.407 146.947 209.727 146.296C210.047 145.635 210.506 145.133 211.103 144.792C211.701 144.44 212.41 144.264 213.231 144.264C214.01 144.264 214.693 144.44 215.279 144.792C215.877 145.133 216.341 145.635 216.671 146.296C217.013 146.947 217.183 147.747 217.183 148.696ZM210.703 148.696C210.703 149.368 210.789 149.955 210.959 150.456C211.141 150.947 211.418 151.325 211.791 151.592C212.165 151.859 212.639 151.992 213.215 151.992C213.791 151.992 214.266 151.859 214.639 151.592C215.013 151.325 215.285 150.947 215.455 150.456C215.637 149.955 215.727 149.368 215.727 148.696C215.727 148.013 215.637 147.432 215.455 146.952C215.274 146.472 214.997 146.104 214.623 145.848C214.261 145.581 213.786 145.448 213.199 145.448C212.325 145.448 211.69 145.736 211.295 146.312C210.901 146.888 210.703 147.683 210.703 148.696ZM220.823 144.424V147.992H225.479V144.424H226.887V153H225.479V149.176H220.823V153H219.415V144.424H220.823ZM231.01 144.424V147.992H235.666V144.424H237.074V153H235.666V149.176H231.01V153H229.602V144.424H231.01ZM238.446 144.424H239.95L241.806 149.304C241.912 149.592 242.008 149.869 242.094 150.136C242.19 150.403 242.275 150.664 242.35 150.92C242.424 151.165 242.483 151.405 242.526 151.64H242.59C242.654 151.373 242.755 151.027 242.894 150.6C243.032 150.163 243.176 149.725 243.326 149.288L245.07 144.424H246.59L242.894 154.184C242.691 154.717 242.451 155.181 242.174 155.576C241.907 155.981 241.576 156.291 241.182 156.504C240.798 156.728 240.328 156.84 239.774 156.84C239.518 156.84 239.294 156.824 239.102 156.792C238.91 156.771 238.744 156.744 238.606 156.712V155.592C238.723 155.613 238.862 155.635 239.022 155.656C239.192 155.677 239.368 155.688 239.55 155.688C239.88 155.688 240.163 155.624 240.398 155.496C240.643 155.379 240.851 155.203 241.022 154.968C241.192 154.744 241.336 154.477 241.454 154.168L241.902 153.032L238.446 144.424ZM259.082 148.696C259.082 149.645 258.927 150.456 258.618 151.128C258.309 151.789 257.871 152.296 257.306 152.648C256.741 152.989 256.069 153.16 255.29 153.16C254.565 153.16 253.93 153.011 253.386 152.712C252.842 152.403 252.41 151.955 252.09 151.368C251.77 150.771 251.583 150.04 251.53 149.176H249.354V153H247.946V144.424H249.354V147.992H251.546C251.621 147.181 251.818 146.504 252.138 145.96C252.469 145.405 252.901 144.984 253.434 144.696C253.978 144.408 254.607 144.264 255.322 144.264C256.058 144.264 256.709 144.44 257.274 144.792C257.839 145.133 258.282 145.635 258.602 146.296C258.922 146.947 259.082 147.747 259.082 148.696ZM252.97 148.696C252.97 149.411 253.05 150.013 253.21 150.504C253.381 150.995 253.637 151.368 253.978 151.624C254.319 151.869 254.762 151.992 255.306 151.992C255.85 151.992 256.293 151.869 256.634 151.624C256.975 151.368 257.226 150.995 257.386 150.504C257.546 150.013 257.626 149.411 257.626 148.696C257.626 147.981 257.546 147.384 257.386 146.904C257.226 146.424 256.975 146.061 256.634 145.816C256.293 145.571 255.85 145.448 255.306 145.448C254.762 145.448 254.319 145.571 253.978 145.816C253.637 146.061 253.381 146.424 253.21 146.904C253.05 147.384 252.97 147.981 252.97 148.696ZM272.225 144.424V153H270.817V145.624H266.385V153H264.977V144.424H272.225ZM282.418 148.696C282.418 149.411 282.322 150.045 282.13 150.6C281.948 151.144 281.682 151.608 281.33 151.992C280.988 152.376 280.567 152.669 280.066 152.872C279.575 153.064 279.026 153.16 278.418 153.16C277.852 153.16 277.33 153.064 276.85 152.872C276.37 152.669 275.954 152.376 275.602 151.992C275.25 151.608 274.972 151.144 274.77 150.6C274.578 150.045 274.482 149.411 274.482 148.696C274.482 147.747 274.642 146.947 274.962 146.296C275.282 145.635 275.74 145.133 276.338 144.792C276.935 144.44 277.644 144.264 278.466 144.264C279.244 144.264 279.927 144.44 280.514 144.792C281.111 145.133 281.575 145.635 281.906 146.296C282.247 146.947 282.418 147.747 282.418 148.696ZM275.938 148.696C275.938 149.368 276.023 149.955 276.194 150.456C276.375 150.947 276.652 151.325 277.026 151.592C277.399 151.859 277.874 151.992 278.45 151.992C279.026 151.992 279.5 151.859 279.874 151.592C280.247 151.325 280.519 150.947 280.69 150.456C280.871 149.955 280.962 149.368 280.962 148.696C280.962 148.013 280.871 147.432 280.69 146.952C280.508 146.472 280.231 146.104 279.858 145.848C279.495 145.581 279.02 145.448 278.434 145.448C277.559 145.448 276.924 145.736 276.53 146.312C276.135 146.888 275.938 147.683 275.938 148.696ZM285.725 147.544C285.725 148.045 285.863 148.419 286.141 148.664C286.429 148.899 286.839 149.016 287.373 149.016C287.906 149.016 288.391 148.936 288.829 148.776C289.266 148.605 289.714 148.381 290.173 148.104V144.424H291.581V153H290.173V149.176C289.693 149.485 289.218 149.731 288.749 149.912C288.29 150.083 287.735 150.168 287.085 150.168C286.21 150.168 285.527 149.939 285.037 149.48C284.557 149.021 284.317 148.408 284.317 147.64V144.424H285.725V147.544ZM300.225 145.608H297.425V153H296.033V145.608H293.265V144.424H300.225V145.608ZM300.571 144.424H302.075L303.931 149.304C304.037 149.592 304.133 149.869 304.219 150.136C304.315 150.403 304.4 150.664 304.475 150.92C304.549 151.165 304.608 151.405 304.651 151.64H304.715C304.779 151.373 304.88 151.027 305.019 150.6C305.157 150.163 305.301 149.725 305.451 149.288L307.195 144.424H308.715L305.019 154.184C304.816 154.717 304.576 155.181 304.299 155.576C304.032 155.981 303.701 156.291 303.307 156.504C302.923 156.728 302.453 156.84 301.899 156.84C301.643 156.84 301.419 156.824 301.227 156.792C301.035 156.771 300.869 156.744 300.731 156.712V155.592C300.848 155.613 300.987 155.635 301.147 155.656C301.317 155.677 301.493 155.688 301.675 155.688C302.005 155.688 302.288 155.624 302.523 155.496C302.768 155.379 302.976 155.203 303.147 154.968C303.317 154.744 303.461 154.477 303.579 154.168L304.027 153.032L300.571 144.424ZM309.527 152.056C309.527 151.8 309.618 151.581 309.799 151.4C309.98 151.208 310.204 151.112 310.471 151.112C310.748 151.112 310.983 151.208 311.175 151.4C311.367 151.581 311.463 151.8 311.463 152.056C311.463 152.323 311.367 152.547 311.175 152.728C310.983 152.909 310.748 153 310.471 153C310.204 153 309.98 152.909 309.799 152.728C309.618 152.547 309.527 152.323 309.527 152.056Z" fill="#707B81"/>
<path d="M90.5442 105V93.576H99.1202V105H97.6962V94.84H91.9842V105H90.5442ZM106.135 96.264C107.191 96.264 108.039 96.632 108.679 97.368C109.33 98.104 109.655 99.2133 109.655 100.696C109.655 101.667 109.506 102.488 109.207 103.16C108.919 103.821 108.509 104.323 107.975 104.664C107.453 104.995 106.834 105.16 106.119 105.16C105.682 105.16 105.293 105.101 104.951 104.984C104.61 104.867 104.317 104.717 104.071 104.536C103.837 104.344 103.634 104.136 103.463 103.912H103.367C103.389 104.093 103.41 104.323 103.431 104.6C103.453 104.877 103.463 105.117 103.463 105.32V108.84H102.055V96.424H103.207L103.399 97.592H103.463C103.634 97.3467 103.837 97.1227 104.071 96.92C104.317 96.7173 104.605 96.5573 104.935 96.44C105.277 96.3227 105.677 96.264 106.135 96.264ZM105.879 97.448C105.303 97.448 104.839 97.56 104.487 97.784C104.135 97.9973 103.879 98.3227 103.719 98.76C103.559 99.1973 103.474 99.752 103.463 100.424V100.696C103.463 101.4 103.538 101.997 103.687 102.488C103.837 102.979 104.087 103.352 104.439 103.608C104.802 103.864 105.293 103.992 105.911 103.992C106.434 103.992 106.861 103.848 107.191 103.56C107.533 103.272 107.783 102.883 107.943 102.392C108.114 101.891 108.199 101.32 108.199 100.68C108.199 99.6987 108.007 98.9147 107.623 98.328C107.25 97.7413 106.669 97.448 105.879 97.448ZM119.355 100.696C119.355 101.411 119.259 102.045 119.067 102.6C118.886 103.144 118.619 103.608 118.267 103.992C117.926 104.376 117.504 104.669 117.003 104.872C116.512 105.064 115.963 105.16 115.355 105.16C114.79 105.16 114.267 105.064 113.787 104.872C113.307 104.669 112.891 104.376 112.539 103.992C112.187 103.608 111.91 103.144 111.707 102.6C111.515 102.045 111.419 101.411 111.419 100.696C111.419 99.7467 111.579 98.9467 111.899 98.296C112.219 97.6347 112.678 97.1333 113.275 96.792C113.872 96.44 114.582 96.264 115.403 96.264C116.182 96.264 116.864 96.44 117.451 96.792C118.048 97.1333 118.512 97.6347 118.843 98.296C119.184 98.9467 119.355 99.7467 119.355 100.696ZM112.875 100.696C112.875 101.368 112.96 101.955 113.131 102.456C113.312 102.947 113.59 103.325 113.963 103.592C114.336 103.859 114.811 103.992 115.387 103.992C115.963 103.992 116.438 103.859 116.811 103.592C117.184 103.325 117.456 102.947 117.627 102.456C117.808 101.955 117.899 101.368 117.899 100.696C117.899 100.013 117.808 99.432 117.627 98.952C117.446 98.472 117.168 98.104 116.795 97.848C116.432 97.5813 115.958 97.448 115.371 97.448C114.496 97.448 113.862 97.736 113.467 98.312C113.072 98.888 112.875 99.6827 112.875 100.696ZM128.483 98.584C128.483 99.1173 128.323 99.5333 128.003 99.832C127.683 100.131 127.272 100.333 126.771 100.44V100.504C127.304 100.579 127.768 100.771 128.163 101.08C128.557 101.379 128.755 101.848 128.755 102.488C128.755 102.851 128.685 103.187 128.547 103.496C128.419 103.805 128.216 104.072 127.939 104.296C127.661 104.52 127.304 104.696 126.867 104.824C126.429 104.941 125.901 105 125.283 105H121.587V96.424H125.267C125.875 96.424 126.419 96.4933 126.899 96.632C127.389 96.76 127.773 96.984 128.051 97.304C128.339 97.6133 128.483 98.04 128.483 98.584ZM127.299 102.488C127.299 101.997 127.112 101.645 126.739 101.432C126.365 101.219 125.816 101.112 125.091 101.112H122.995V103.864H125.123C125.827 103.864 126.365 103.763 126.739 103.56C127.112 103.347 127.299 102.989 127.299 102.488ZM127.059 98.76C127.059 98.3547 126.909 98.0613 126.611 97.88C126.323 97.688 125.848 97.592 125.187 97.592H122.995V99.944H124.931C125.624 99.944 126.152 99.848 126.515 99.656C126.877 99.464 127.059 99.1653 127.059 98.76ZM134.117 96.264C134.853 96.264 135.483 96.424 136.005 96.744C136.539 97.064 136.944 97.5173 137.221 98.104C137.509 98.68 137.653 99.3573 137.653 100.136V100.984H131.781C131.803 101.955 132.048 102.696 132.517 103.208C132.997 103.709 133.664 103.96 134.517 103.96C135.061 103.96 135.541 103.912 135.957 103.816C136.384 103.709 136.821 103.56 137.269 103.368V104.6C136.832 104.792 136.4 104.931 135.973 105.016C135.547 105.112 135.04 105.16 134.453 105.16C133.643 105.16 132.923 104.995 132.293 104.664C131.675 104.333 131.189 103.843 130.837 103.192C130.496 102.531 130.325 101.725 130.325 100.776C130.325 99.8373 130.48 99.032 130.789 98.36C131.109 97.688 131.552 97.1707 132.117 96.808C132.693 96.4453 133.36 96.264 134.117 96.264ZM134.101 97.416C133.429 97.416 132.896 97.6347 132.501 98.072C132.117 98.4987 131.888 99.096 131.813 99.864H136.181C136.181 99.3733 136.107 98.9467 135.957 98.584C135.808 98.2213 135.579 97.9387 135.269 97.736C134.971 97.5227 134.581 97.416 134.101 97.416ZM143.917 96.264C144.973 96.264 145.821 96.632 146.461 97.368C147.111 98.104 147.437 99.2133 147.437 100.696C147.437 101.667 147.287 102.488 146.989 103.16C146.701 103.821 146.29 104.323 145.757 104.664C145.234 104.995 144.615 105.16 143.901 105.16C143.463 105.16 143.074 105.101 142.733 104.984C142.391 104.867 142.098 104.717 141.853 104.536C141.618 104.344 141.415 104.136 141.245 103.912H141.149C141.17 104.093 141.191 104.323 141.213 104.6C141.234 104.877 141.245 105.117 141.245 105.32V108.84H139.837V96.424H140.989L141.181 97.592H141.245C141.415 97.3467 141.618 97.1227 141.853 96.92C142.098 96.7173 142.386 96.5573 142.717 96.44C143.058 96.3227 143.458 96.264 143.917 96.264ZM143.661 97.448C143.085 97.448 142.621 97.56 142.269 97.784C141.917 97.9973 141.661 98.3227 141.501 98.76C141.341 99.1973 141.255 99.752 141.245 100.424V100.696C141.245 101.4 141.319 101.997 141.469 102.488C141.618 102.979 141.869 103.352 142.221 103.608C142.583 103.864 143.074 103.992 143.693 103.992C144.215 103.992 144.642 103.848 144.973 103.56C145.314 103.272 145.565 102.883 145.725 102.392C145.895 101.891 145.981 101.32 145.981 100.68C145.981 99.6987 145.789 98.9147 145.405 98.328C145.031 97.7413 144.45 97.448 143.661 97.448ZM153.632 99.944C154.379 99.944 154.998 100.035 155.488 100.216C155.979 100.397 156.347 100.669 156.592 101.032C156.848 101.384 156.976 101.832 156.976 102.376C156.976 102.909 156.854 103.373 156.608 103.768C156.374 104.163 156.006 104.467 155.504 104.68C155.003 104.893 154.358 105 153.568 105H149.68V96.424H151.088V99.944H153.632ZM155.568 102.456C155.568 101.933 155.382 101.581 155.008 101.4C154.646 101.208 154.134 101.112 153.472 101.112H151.088V103.864H153.504C154.102 103.864 154.592 103.757 154.976 103.544C155.371 103.331 155.568 102.968 155.568 102.456ZM164.303 97.608H161.503V105H160.111V97.608H157.343V96.424H164.303V97.608ZM169.149 96.264C169.885 96.264 170.514 96.424 171.037 96.744C171.57 97.064 171.975 97.5173 172.253 98.104C172.541 98.68 172.685 99.3573 172.685 100.136V100.984H166.813C166.834 101.955 167.079 102.696 167.549 103.208C168.029 103.709 168.695 103.96 169.549 103.96C170.093 103.96 170.573 103.912 170.989 103.816C171.415 103.709 171.853 103.56 172.301 103.368V104.6C171.863 104.792 171.431 104.931 171.005 105.016C170.578 105.112 170.071 105.16 169.485 105.16C168.674 105.16 167.954 104.995 167.325 104.664C166.706 104.333 166.221 103.843 165.869 103.192C165.527 102.531 165.357 101.725 165.357 100.776C165.357 99.8373 165.511 99.032 165.821 98.36C166.141 97.688 166.583 97.1707 167.149 96.808C167.725 96.4453 168.391 96.264 169.149 96.264ZM169.133 97.416C168.461 97.416 167.927 97.6347 167.533 98.072C167.149 98.4987 166.919 99.096 166.845 99.864H171.213C171.213 99.3733 171.138 98.9467 170.989 98.584C170.839 98.2213 170.61 97.9387 170.301 97.736C170.002 97.5227 169.613 97.416 169.133 97.416ZM181.98 93.576C182.929 93.576 183.724 93.6667 184.364 93.848C185.015 94.0293 185.5 94.328 185.82 94.744C186.151 95.16 186.316 95.7147 186.316 96.408C186.316 96.856 186.231 97.256 186.06 97.608C185.9 97.9493 185.655 98.2373 185.324 98.472C185.004 98.696 184.609 98.8507 184.14 98.936V99.016C184.62 99.0907 185.052 99.2293 185.436 99.432C185.831 99.6347 186.14 99.9227 186.364 100.296C186.588 100.669 186.7 101.155 186.7 101.752C186.7 102.445 186.54 103.037 186.22 103.528C185.9 104.008 185.441 104.376 184.844 104.632C184.257 104.877 183.553 105 182.732 105H178.716V93.576H181.98ZM182.268 98.44C183.249 98.44 183.921 98.2853 184.284 97.976C184.647 97.656 184.828 97.1867 184.828 96.568C184.828 95.9387 184.604 95.4907 184.156 95.224C183.719 94.9467 183.015 94.808 182.044 94.808H180.156V98.44H182.268ZM180.156 99.64V103.784H182.46C183.473 103.784 184.177 103.587 184.572 103.192C184.967 102.797 185.164 102.28 185.164 101.64C185.164 101.235 185.073 100.883 184.892 100.584C184.721 100.285 184.428 100.056 184.012 99.896C183.607 99.7253 183.052 99.64 182.348 99.64H180.156ZM192.178 96.28C193.224 96.28 193.997 96.5093 194.498 96.968C195 97.4267 195.25 98.1573 195.25 99.16V105H194.226L193.954 103.784H193.89C193.645 104.093 193.389 104.355 193.122 104.568C192.866 104.771 192.568 104.92 192.226 105.016C191.896 105.112 191.49 105.16 191.01 105.16C190.498 105.16 190.034 105.069 189.618 104.888C189.213 104.707 188.893 104.429 188.658 104.056C188.424 103.672 188.306 103.192 188.306 102.616C188.306 101.763 188.642 101.107 189.314 100.648C189.986 100.179 191.021 99.9227 192.418 99.88L193.874 99.832V99.32C193.874 98.6053 193.72 98.1093 193.41 97.832C193.101 97.5547 192.664 97.416 192.098 97.416C191.65 97.416 191.224 97.4853 190.818 97.624C190.413 97.752 190.034 97.9013 189.682 98.072L189.25 97.016C189.624 96.8133 190.066 96.6427 190.578 96.504C191.09 96.3547 191.624 96.28 192.178 96.28ZM192.594 100.856C191.528 100.899 190.786 101.069 190.37 101.368C189.965 101.667 189.762 102.088 189.762 102.632C189.762 103.112 189.906 103.464 190.194 103.688C190.493 103.912 190.872 104.024 191.33 104.024C192.056 104.024 192.658 103.827 193.138 103.432C193.618 103.027 193.858 102.408 193.858 101.576V100.808L192.594 100.856ZM209.531 96.424V105H197.899V96.424H199.307V103.816H203.003V96.424H204.411V103.816H208.123V96.424H209.531ZM215.978 94.088H222.666V95.32H217.322V98.808H222.282V100.008H217.322V103.768H222.826V105H215.978V94.088ZM224.77 98.408C224.77 98.0453 224.738 97.608 224.674 97.096L225.874 96.936L226.05 97.944C226.338 97.7307 226.62 97.544 226.898 97.384C227.175 97.224 227.474 97.0853 227.794 96.968C228.114 96.8507 228.439 96.792 228.77 96.792C229.303 96.792 229.724 96.888 230.034 97.08C230.343 97.2613 230.572 97.576 230.722 98.024C231.159 97.7147 231.612 97.432 232.082 97.176C232.562 96.92 233.058 96.792 233.57 96.792C233.964 96.792 234.3 96.8453 234.578 96.952C234.855 97.048 235.079 97.2133 235.25 97.448C235.42 97.6827 235.543 97.992 235.618 98.376C235.692 98.76 235.73 99.24 235.73 99.816V105H234.45V99.96C234.45 99.64 234.444 99.3573 234.434 99.112C234.423 98.856 234.386 98.6427 234.322 98.472C234.258 98.2907 234.151 98.152 234.002 98.056C233.863 97.96 233.66 97.912 233.394 97.912C233.148 97.912 232.914 97.9493 232.69 98.024C232.476 98.088 232.252 98.184 232.018 98.312C231.783 98.44 231.42 98.7013 230.93 99.096V105H229.65V99.96C229.65 99.64 229.644 99.3573 229.634 99.112C229.623 98.856 229.586 98.6427 229.522 98.472C229.458 98.2907 229.351 98.152 229.202 98.056C229.063 97.96 228.86 97.912 228.594 97.912C228.316 97.912 228.028 97.9707 227.73 98.088C227.431 98.2053 227.148 98.344 226.882 98.504C226.615 98.664 226.338 98.8507 226.05 99.064V105H224.77V98.408ZM242.468 101.304C242.255 101.315 242.052 101.325 241.86 101.336C241.668 101.347 241.476 101.363 241.284 101.384C241.103 101.395 240.937 101.411 240.788 101.432C240.02 101.528 239.476 101.699 239.156 101.944C238.836 102.179 238.676 102.52 238.676 102.968C238.676 103.341 238.788 103.624 239.012 103.816C239.247 103.997 239.551 104.088 239.924 104.088C240.436 104.088 240.889 104.003 241.284 103.832C241.689 103.651 242.084 103.416 242.468 103.128V101.304ZM242.452 104.248C241.951 104.536 241.481 104.771 241.044 104.952C240.617 105.123 240.153 105.208 239.652 105.208C238.937 105.208 238.367 105.037 237.94 104.696C237.524 104.344 237.316 103.768 237.316 102.968C237.316 102.552 237.423 102.189 237.636 101.88C237.849 101.571 238.127 101.315 238.468 101.112C238.82 100.899 239.215 100.733 239.652 100.616C240.089 100.499 240.537 100.424 240.996 100.392C241.188 100.371 241.439 100.355 241.748 100.344C242.057 100.323 242.297 100.307 242.468 100.296C242.468 99.9227 242.457 99.592 242.436 99.304C242.415 99.0053 242.351 98.7547 242.244 98.552C242.137 98.3387 241.977 98.1787 241.764 98.072C241.561 97.9653 241.268 97.912 240.884 97.912C240.575 97.912 240.276 97.9333 239.988 97.976C239.7 98.008 239.444 98.0453 239.22 98.088C238.953 98.1413 238.708 98.2 238.484 98.264L238.228 97.16C238.495 97.096 238.783 97.0373 239.092 96.984C239.359 96.9307 239.668 96.888 240.02 96.856C240.372 96.8133 240.751 96.792 241.156 96.792C241.7 96.792 242.137 96.872 242.468 97.032C242.809 97.192 243.071 97.4107 243.252 97.688C243.444 97.9547 243.572 98.264 243.636 98.616C243.711 98.9573 243.748 99.32 243.748 99.704V103.544C243.748 103.693 243.748 103.853 243.748 104.024C243.759 104.184 243.769 104.344 243.78 104.504C243.801 104.664 243.823 104.829 243.844 105L242.612 105.128L242.452 104.248ZM246.004 96.936L247.284 96.792V105H246.004V96.936ZM245.796 94.648C245.796 94.4027 245.876 94.2 246.036 94.04C246.206 93.8693 246.414 93.784 246.66 93.784C246.916 93.784 247.129 93.8693 247.3 94.04C247.481 94.2 247.572 94.4027 247.572 94.648C247.572 94.8933 247.481 95.1013 247.3 95.272C247.129 95.432 246.916 95.512 246.66 95.512C246.414 95.512 246.206 95.432 246.036 95.272C245.876 95.1013 245.796 94.8933 245.796 94.648ZM249.582 93.016L250.862 92.872V105H249.582V93.016Z" fill="#2B2B2B"/>
<circle cx="168" cy="52" r="22" fill="#48B2E7"/>
<path d="M156 61.68H180V37.68H156V61.68Z" fill="black"/>
</svg>
